<svg width="93" height="73" viewBox="0 0 93 73" fill="none" xmlns="http://www.w3.org/2000/svg">
<path fill-rule="evenodd" clip-rule="evenodd" d="M53.2506 43.7974C54.0909 43.646 54.943 43.57 55.7969 43.5703C57.5924 43.5703 59.3104 43.9025 60.893 44.5086L67.1898 35.5547L67.4302 35.691C65.0958 33.0825 63.8075 29.7036 63.8125 26.2031C63.8125 18.3331 70.1925 11.9531 78.0625 11.9531C85.9325 11.9531 92.3125 18.3331 92.3125 26.2031C92.3125 34.0731 85.9325 40.4531 78.0625 40.4531C76.4273 40.4531 74.8562 40.1775 73.3934 39.6707L67.021 49.0392C68.9862 51.5439 70.0519 54.6367 70.0469 57.8203C70.0469 65.6903 63.6669 72.0703 55.7969 72.0703C47.9269 72.0703 41.5469 65.6903 41.5469 57.8203C41.5469 53.4709 43.4956 49.5767 46.5673 46.9627L37.3209 28.5802C36.3671 28.7768 35.3957 28.8756 34.4219 28.875C33.1956 28.8759 31.9743 28.7187 30.7881 28.4074L24.2349 39.9544C26.9451 42.5483 28.6328 46.2021 28.6328 50.25C28.6328 58.12 22.2528 64.5 14.3828 64.5C6.5128 64.5 0.132812 58.12 0.132812 50.25C0.132812 42.38 6.5128 36 14.3828 36C15.5651 36 16.7136 36.1438 17.8117 36.415L24.4064 24.7612C21.7919 22.1788 20.1719 18.5914 20.1719 14.625C20.1719 6.75499 26.5519 0.375 34.4219 0.375C42.2919 0.375 48.6719 6.75499 48.6719 14.625C48.6719 18.8835 46.8038 22.7056 43.8429 25.317L53.2506 43.7974ZM78.0625 33.3281C81.9977 33.3281 85.1875 30.1384 85.1875 26.2031C85.1875 22.2679 81.9977 19.0781 78.0625 19.0781C74.1273 19.0781 70.9375 22.2679 70.9375 26.2031C70.9375 30.1384 74.1273 33.3281 78.0625 33.3281ZM14.3828 57.375C18.318 57.375 21.5078 54.1852 21.5078 50.25C21.5078 46.3148 18.318 43.125 14.3828 43.125C10.4476 43.125 7.25781 46.3148 7.25781 50.25C7.25781 54.1852 10.4476 57.375 14.3828 57.375ZM34.4219 21.75C38.3571 21.75 41.5469 18.5602 41.5469 14.625C41.5469 10.6898 38.3571 7.5 34.4219 7.5C30.4866 7.5 27.2969 10.6898 27.2969 14.625C27.2969 18.5602 30.4866 21.75 34.4219 21.75ZM55.7969 64.9453C59.7321 64.9453 62.9219 61.7555 62.9219 57.8203C62.9219 53.8851 59.7321 50.6953 55.7969 50.6953C51.8616 50.6953 48.6719 53.8851 48.6719 57.8203C48.6719 61.7555 51.8616 64.9453 55.7969 64.9453Z" fill="url(#paint0_linear_1_7797)"/>
<defs>
<linearGradient id="paint0_linear_1_7797" x1="46.2227" y1="0.375" x2="46.2227" y2="72.0703" gradientUnits="userSpaceOnUse">
<stop stop-color="#5CC3FD"/>
<stop offset="1" stop-color="#364CA6"/>
</linearGradient>
</defs>
</svg>
