<svg width="88" height="88" viewBox="0 0 88 88" fill="none" xmlns="http://www.w3.org/2000/svg">
<path d="M40.3563 0.257816C30.4391 1.61563 21.9656 8.62813 18.8203 18.1156C17.5484 21.9484 17.3594 23.7875 17.3594 32.8625C17.3594 38.9641 17.3938 40.0469 17.6 40.0469C17.7375 40.0469 18.5281 39.875 19.3703 39.6859C20.1953 39.4797 22 39.1016 23.375 38.8609L25.8672 38.3797L25.9703 31.0922C26.0563 23.9078 26.0734 23.7875 26.5031 22.2578C28.6516 14.85 34.9078 9.59063 42.3156 8.95469C51.3047 8.19844 59.1594 13.75 61.5656 22.5672C61.9266 23.8906 61.9609 24.4234 62.0469 31.1781L62.1328 38.3797L64.3672 38.7922C65.6047 39.0156 67.4266 39.3938 68.4406 39.6172C69.4547 39.8578 70.3484 40.0469 70.4516 40.0469C70.7094 40.0469 70.7094 26.6406 70.4516 24.2172C70.0906 20.5563 69.1797 17.4625 67.6156 14.4547C62.3734 4.36563 51.5453 -1.27187 40.3563 0.257816Z" fill="url(#paint0_linear_1_16929)"/>
<path d="M37.8125 38.4317C37.3828 38.4661 36.0422 38.5864 34.8047 38.6724C30.0438 39.0677 25.2484 39.8067 20.1953 40.9239C13.3375 42.4192 12.2031 42.8833 11.275 44.5161L10.7422 45.4614V62.9927V80.5239L11.275 81.4692C12.0484 82.8442 12.925 83.3083 16.5344 84.288C34.9937 89.238 53.5047 89.2208 71.7578 84.202C75.3328 83.2224 76.0203 82.827 76.8969 81.2114L77.2578 80.5239V62.9927V45.4614L76.725 44.5161C75.9 43.0552 75.1094 42.677 70.8641 41.6286C65.1922 40.2364 60.4656 39.4114 54.3125 38.7411C51.9578 38.4833 39.8578 38.2599 37.8125 38.4317ZM46.1656 55.7224C47.4203 56.1864 48.5203 57.2005 49.1734 58.5411C49.6547 59.5208 49.7406 59.8474 49.7406 60.9817C49.7406 62.5802 49.1562 64.0583 48.1422 65.038L47.4891 65.6739L48.0734 67.513C48.7094 69.5411 48.7094 70.0911 48.0047 70.6411C47.5922 70.9677 47.3172 70.9849 44 70.9849C40.6828 70.9849 40.4078 70.9677 39.9953 70.6411C39.2906 70.0911 39.2906 69.5411 39.9266 67.513L40.5109 65.6739L39.8578 65.038C39.5141 64.6942 38.9984 63.938 38.7406 63.3536C37.4859 60.6208 38.6891 57.2349 41.3359 55.9458C42.9344 55.1552 44.4641 55.0864 46.1656 55.7224Z" fill="url(#paint1_linear_1_16929)"/>
<defs>
<linearGradient id="paint0_linear_1_16929" x1="44.0021" y1="40.0469" x2="44.0021" y2="0.00954819" gradientUnits="userSpaceOnUse">
<stop stop-color="#364CA6"/>
<stop offset="1" stop-color="#5CC3FD"/>
</linearGradient>
<linearGradient id="paint1_linear_1_16929" x1="44" y1="87.9834" x2="44" y2="38.3713" gradientUnits="userSpaceOnUse">
<stop stop-color="#364CA6"/>
<stop offset="1" stop-color="#5CC3FD"/>
</linearGradient>
</defs>
</svg>
