<svg width="86" height="86" viewBox="0 0 86 86" fill="none" xmlns="http://www.w3.org/2000/svg">
<path d="M39.1367 0.184769C34.6519 0.671883 28.1179 2.55313 26.9421 3.67852C26.3542 4.23282 26.3878 5.34142 26.9757 5.9461C27.6644 6.63477 28.1515 6.60117 30.3855 5.71095C32.3339 4.93829 35.2734 4.13203 37.373 3.7961C38.2128 3.66173 38.9015 3.57774 38.9183 3.59454C38.9351 3.61134 39.0695 3.89688 39.2038 4.21602C39.439 4.77032 39.4222 4.83751 38.9687 5.52618C38.1456 6.73555 38.1121 7.81055 38.8175 9.1543C39.6238 10.6828 40.9675 11.6738 43.7222 12.7656L45.5531 13.4879L45.4355 14.0086C45.0996 15.5203 45.0324 15.9402 45.0156 16.6793C45.0156 17.1328 44.9484 17.6199 44.8476 17.7879C44.6628 18.1574 43.7222 18.5606 42.664 18.7285C40.3292 19.1148 38.9519 21.0297 38.9183 23.9356C38.9015 25.3633 39.0359 25.7832 39.7917 26.5895C40.4468 27.3117 41.2027 27.5637 42.664 27.5301C44.1925 27.4965 44.4109 27.5973 45.889 28.9914C47.1656 30.184 48.1062 30.5703 49.7355 30.5703H50.6929L51.2976 31.6453C51.6335 32.2332 52.339 33.2074 52.8933 33.8121C53.4476 34.4168 53.9851 35.0887 54.1027 35.2902C54.2035 35.4918 54.3546 36.4156 54.4218 37.3227C54.5394 38.7336 54.6234 39.1199 55.0265 39.7582C56.5886 42.2777 60.2503 41.5891 62.2492 38.4313C62.5011 38.0281 62.9546 37.0203 63.257 36.1973C63.6769 35.0383 63.8617 34.6856 64.0968 34.6856C64.3152 34.6856 64.8023 35.2398 65.5414 36.3652C68.1953 40.2957 70.2781 41.2531 72.8312 39.7078C73.755 39.1535 73.7718 39.1535 74.2925 39.4223C75.0316 39.7918 76.3585 39.7582 77.3328 39.3215C77.7863 39.1367 78.1894 38.9688 78.223 38.9688C78.3574 38.9688 78.1054 42.0762 77.8367 43.9238C76.896 50.0883 74.4101 55.7656 70.5132 60.6703C69.8749 61.4934 69.2871 62.1484 69.2367 62.1484C69.1695 62.1484 68.9007 61.7285 68.632 61.2246C68.1113 60.2168 66.6835 58.8059 65.6925 58.302C61.2414 56.0344 55.9335 58.5707 54.9257 63.4418C54.6234 64.8863 54.7914 69.2367 55.1777 70.2445L55.4968 71.0172L54.9257 71.5043C54.0187 72.277 53.9347 72.2938 53.5484 71.773C53.0445 71.118 51.9527 70.0598 51.1464 69.4215L50.4746 68.9008L50.8777 67.8426C51.2304 66.902 51.2976 66.4148 51.3648 63.9289C51.4656 59.5113 50.9617 57.8148 48.8956 55.7488C47.1992 54.0523 45.3011 53.2461 42.9999 53.2461C40.6988 53.2461 38.8511 54.0355 37.1042 55.7656C35.0382 57.798 34.5175 59.5113 34.6351 63.9289C34.7023 66.3477 34.7695 66.9355 35.1054 67.8426L35.4917 68.9176L34.8367 69.4383C34.0472 70.0598 32.9554 71.1348 32.4515 71.773C32.0652 72.2938 31.9812 72.277 31.0742 71.5043L30.5031 71.0172L30.8222 70.2445C31.2085 69.2367 31.3765 64.8863 31.0742 63.4418C30.0664 58.5707 24.7585 56.0344 20.3074 58.302C19.3163 58.8059 17.8886 60.2168 17.3679 61.2246C17.0992 61.7285 16.8304 62.1484 16.7632 62.1484C16.5617 62.1484 14.5796 59.5785 13.3871 57.7813C10.666 53.666 8.98627 49.1645 7.99526 43.3863C7.91127 42.8824 7.92807 42.8488 8.61674 42.7481C9.00307 42.6809 9.80932 42.4457 10.3972 42.2273C10.9851 42.009 11.573 41.8242 11.7242 41.8242C11.8585 41.8242 12.6984 42.5297 13.5886 43.3863C14.4789 44.243 15.5035 45.0828 15.873 45.2676C17.7206 46.141 19.6019 45.5867 20.9121 43.8231C22.1382 42.1602 22.0878 41.102 20.6433 37.9945C19.6019 35.7773 19.5683 35.4918 20.2906 35.0551L20.8449 34.7359L22.1382 35.9789C23.9691 37.7594 24.5738 38.0449 26.455 38.0281C30.8726 37.9945 33.157 35.6094 32.1156 32.1324C31.2253 29.2266 28.689 27.1773 23.9859 25.548C21.1136 24.5738 21.1304 24.5738 20.6937 23.2301C19.8035 20.4922 18.846 19.5516 16.6792 19.2996C15.3355 19.1484 13.9413 18.8293 13.9413 18.6949C13.9413 18.527 15.2179 16.8641 16.2593 15.6715C17.5191 14.2102 17.7206 13.7734 17.4687 13.0008C17.2167 12.2617 16.7128 11.9258 15.873 11.9258C15.2683 11.9258 15.0835 12.0266 14.3445 12.7992C10.246 17.0488 6.73549 23.8348 5.30776 30.2344C4.61908 33.3754 4.45112 34.9711 4.46791 38.7168C4.46791 42.7145 4.70307 44.6965 5.6269 48.3078C6.36596 51.1801 7.17221 53.3301 8.51596 55.984C10.2796 59.4441 11.9425 61.8629 14.798 65.0039L16.2425 66.5996L16.3601 67.893C16.4273 68.5984 16.6121 69.5727 16.78 70.0766L17.0824 70.9668L15.9066 72.0586C14.4285 73.4191 13.3031 75.1324 12.6816 76.9465C12.2281 78.2566 12.1945 78.5758 12.1273 81.4313C12.0937 83.1277 12.1105 84.6898 12.1609 84.925C12.2281 85.1434 12.5136 85.4793 12.816 85.6641C13.3367 86 13.8238 86 42.9999 86C72.1761 86 72.6632 86 73.1839 85.6641C73.4863 85.4793 73.7718 85.1434 73.839 84.925C73.8894 84.6898 73.9062 83.1277 73.8726 81.4313C73.8054 78.6094 73.7718 78.2566 73.3351 77.0137C72.6968 75.1492 71.605 73.4695 70.1437 72.109L68.9175 70.9668L69.2199 70.0934C69.371 69.623 69.5558 68.6488 69.623 67.9266L69.7574 66.5996L71.2019 65.0039C75.8714 59.8305 78.7773 54.573 80.3898 48.291C81.2968 44.7469 81.532 42.7313 81.532 38.6328C81.532 34.568 81.3136 32.6363 80.3898 28.9914C77.6519 18.191 70.1269 8.93594 60.0656 4.01446C58.7722 3.37617 57.0757 2.63712 56.2863 2.35157C54.3546 1.6461 50.8777 0.755867 48.7109 0.41993C46.6113 0.100784 41.1523 -0.0503845 39.1367 0.184769ZM46.8632 3.52735C53.3132 4.3168 59.2593 6.70196 64.332 10.5484C66.0789 11.8754 69.1695 14.9156 70.5468 16.6289C73.6039 20.4754 75.8546 24.9938 77.1144 29.7977C77.6183 31.7629 78.1726 35.0383 78.0214 35.2734C77.8703 35.5254 75.7707 36.3316 75.5523 36.2141C75.4347 36.1469 75.1492 35.9957 74.914 35.8613C74.6789 35.727 74.1413 35.6094 73.7214 35.6094C73.0999 35.6094 72.7472 35.727 72.0417 36.2141C71.5378 36.55 71.0171 36.8859 70.8492 36.9699C70.4292 37.2051 69.6566 36.466 68.4976 34.7023C67.3218 32.9051 66.6835 32.1996 65.7597 31.6621C64.3656 30.8391 62.9714 30.9734 61.7957 32.0316C61.0398 32.7203 60.5191 33.6441 59.9648 35.3406C59.696 36.1469 59.3769 36.7012 58.8898 37.2219C58.4867 37.625 58.1003 37.9609 57.9996 37.9609C57.9156 37.9609 57.7812 37.3395 57.7308 36.5668C57.5964 34.568 57.1597 33.577 55.7656 32.0148C55.1273 31.2926 54.2706 30.0832 53.8843 29.3441C52.9269 27.5637 52.339 27.2109 50.273 27.2109H48.8621L47.6863 26.1023C46.1242 24.641 45.066 24.1539 43.4199 24.1707H42.1433L42.2609 23.5492C42.4624 22.491 42.6304 22.1887 43.1175 22.0711C45.3011 21.6008 46.3425 21.1305 47.1488 20.2906C47.8878 19.518 48.1902 18.7117 48.3749 16.9984C48.4589 16.1922 48.6437 15.1172 48.7949 14.6133C49.0972 13.5719 49.0132 12.7992 48.5093 11.9258C48.0054 11.0356 47.1824 10.4981 44.982 9.64141C43.4367 9.03672 42.7984 8.70078 42.3113 8.21368L41.6562 7.5586L42.0761 6.92032C42.4624 6.33243 42.8656 4.8711 42.748 4.46797C42.7144 4.3672 42.6472 4.08165 42.5968 3.8129L42.496 3.35938H43.9742C44.7804 3.35938 46.0906 3.44337 46.8632 3.52735ZM13.1519 22.0039C13.5718 22.1887 14.546 22.4238 15.3187 22.5246C16.0914 22.6086 16.7968 22.7766 16.9144 22.8941C17.0152 23.0117 17.3343 23.7676 17.6367 24.6074C18.4261 26.875 19.014 27.3621 22.4238 28.5547C26.1191 29.848 27.8828 30.9566 28.6218 32.4348C29.1425 33.493 29.1593 33.7785 28.7394 34.1648C28.3531 34.5176 26.5726 34.8535 25.9343 34.7023C25.6488 34.6184 24.8929 34.0137 24.1035 33.2242C22.6589 31.7629 22.0542 31.4102 20.996 31.4102C19.6691 31.4102 17.6031 32.4684 16.9648 33.493C16.0578 34.9879 16.1921 36.3484 17.5695 39.3383C18.0734 40.4133 18.4765 41.3539 18.4765 41.4211C18.4765 41.6563 17.7542 42.3281 17.5023 42.3281C17.3847 42.3281 16.5953 41.6395 15.7554 40.8164C14.9156 39.9766 13.8742 39.1031 13.4206 38.8848C12.3456 38.3305 11.0859 38.3305 9.74213 38.868C9.20463 39.0863 8.51596 39.3215 8.24721 39.3887L7.72651 39.5063V37.8434C7.72651 33.6105 8.86869 28.5547 10.7667 24.2883C11.6402 22.3231 12.0097 21.668 12.2449 21.668C12.3289 21.668 12.732 21.8191 13.1519 22.0039ZM45.1331 57.0758C46.2249 57.6469 46.9808 58.3859 47.4847 59.4273C47.9382 60.368 47.955 60.452 47.955 63.3242C47.955 66.6836 47.8039 67.2547 46.5777 68.4809C45.5363 69.5223 44.4949 69.9422 42.9999 69.9422C41.505 69.9422 40.4636 69.5223 39.4222 68.4809C38.2632 67.3219 38.0617 66.6332 37.9945 63.6434C37.9609 62.0813 38.0113 60.7543 38.1121 60.3512C38.5152 58.8563 40.0773 57.227 41.5554 56.7734C42.4121 56.5047 44.3437 56.6727 45.1331 57.0758ZM25.0945 61.0063C26.0183 61.275 27.4124 62.6691 27.6812 63.593C27.9499 64.5336 27.9331 68.2625 27.6476 69.0855C26.6062 71.9578 22.8605 72.6969 20.8113 70.4293C19.8874 69.4215 19.7363 68.7832 19.7363 66.1797C19.7531 64.5 19.8203 63.7609 20.005 63.3242C20.8953 61.3422 22.9949 60.3848 25.0945 61.0063ZM64.2648 61.4094C65.9109 62.4172 66.4484 63.8953 66.2972 66.9523C66.2132 68.884 65.8773 69.8246 64.9871 70.6645C63.257 72.3105 60.4351 72.109 59.0074 70.2445C58.705 69.8414 58.3859 69.2535 58.2851 68.9008C58.0499 68.0441 58.0667 64.4328 58.3187 63.593C58.5706 62.7531 59.9816 61.2918 60.8046 61.023C61.846 60.6703 63.3578 60.8383 64.2648 61.4094ZM38.1121 71.7898C38.4648 72.2098 40.5644 73.0496 41.7906 73.268C42.748 73.4359 43.2519 73.4359 44.2261 73.268C45.4187 73.0496 47.3503 72.277 47.9046 71.773C48.1566 71.5379 48.2406 71.5547 48.7781 71.8738C49.6683 72.4281 51.2472 74.2254 51.8687 75.3676C52.6917 76.9297 53.0781 78.6598 53.0781 80.8266V82.6406H42.9999H32.9218V80.8266C32.9218 77.7359 33.7449 75.3844 35.4749 73.4863C36.3148 72.5625 37.5242 71.5547 37.7929 71.5547C37.8601 71.5547 38.0113 71.6555 38.1121 71.7898ZM20.4081 74.3262C22.6253 75.418 24.8929 75.418 27.1437 74.3262C27.8156 74.007 28.4035 73.7383 28.4539 73.7383C28.521 73.7383 28.9746 74.1246 29.4617 74.5781L30.3519 75.418L30.0328 76.5602C29.7976 77.3328 29.68 78.4414 29.6128 80.1547L29.5121 82.6406H22.491H15.4531V81.0785C15.4531 78.3406 16.1417 76.5938 17.9054 74.7797C18.4765 74.2086 19.014 73.7383 19.0812 73.7383C19.1652 73.7383 19.7531 74.007 20.4081 74.3262ZM58.8562 74.3262C61.107 75.418 63.3746 75.418 65.6253 74.3094L66.8347 73.7047L67.3386 74.0574C68.0609 74.5781 69.0687 75.7539 69.5894 76.7113C70.2445 77.9207 70.5468 79.3148 70.5468 81.0785V82.6406H63.5089H56.4878L56.3871 80.2387C56.3367 78.6094 56.2023 77.4672 55.9671 76.6441L55.6312 75.4348L56.5382 74.5781C57.0253 74.1246 57.4789 73.7383 57.546 73.7383C57.5964 73.7383 58.1843 74.007 58.8562 74.3262Z" fill="url(#paint0_linear_1_16939)"/>
<path d="M20.526 7.30704C19.6021 8.09649 19.7869 9.49064 20.8787 10.0113C22.5584 10.8176 24.0029 8.70118 22.6928 7.37423C22.0545 6.73595 21.2314 6.71915 20.526 7.30704Z" fill="url(#paint1_linear_1_16939)"/>
<defs>
<linearGradient id="paint0_linear_1_16939" x1="42.9994" y1="86" x2="42.9994" y2="0.0702896" gradientUnits="userSpaceOnUse">
<stop stop-color="#364CA6"/>
<stop offset="1" stop-color="#5CC3FD"/>
</linearGradient>
<linearGradient id="paint1_linear_1_16939" x1="21.5671" y1="10.1895" x2="21.5671" y2="6.88028" gradientUnits="userSpaceOnUse">
<stop stop-color="#364CA6"/>
<stop offset="1" stop-color="#5CC3FD"/>
</linearGradient>
</defs>
</svg>
