<svg width="250" height="104" viewBox="0 0 250 104" fill="none" xmlns="http://www.w3.org/2000/svg">
<g id="Layer_1">
<g id="Group">
<path id="Vector" d="M77.8851 50.0551L76.9106 47.0415H76.808L75.8762 49.9536L74.4743 54.3386H79.2699L77.8851 50.0551ZM81.3386 59.3078C81.0907 59.3078 80.9454 59.3078 80.8428 59.003L79.8085 55.9894H73.9785L72.9441 59.003C72.8843 59.2062 72.756 59.3078 72.5081 59.3078H71.1062C70.8412 59.3078 70.7728 59.1216 70.8412 58.9184L75.5172 45.7547C75.748 45.1029 75.9275 44.959 76.5686 44.9336H77.1927C77.9364 44.9336 78.0988 45.1368 78.3125 45.7547L82.9628 58.9184C83.0483 59.1046 82.9799 59.3078 82.7149 59.3078H81.3472H81.3386Z" fill="white"/>
<path id="Vector_2" d="M86.2967 58.9249C86.2967 59.255 86.1941 59.3143 85.8863 59.3143H84.852C84.5613 59.3143 84.416 59.255 84.416 58.9249V48.4786C84.416 46.5908 85.2452 44.957 87.9123 44.957H93.4517C93.7851 44.957 93.8449 45.1009 93.8449 45.3888V46.2268C93.8449 46.557 93.7851 46.6586 93.4517 46.6586H87.9294C86.7925 46.6586 86.2967 47.1326 86.2967 48.1908V58.9249Z" fill="white"/>
<path id="Vector_3" d="M104.872 59.3143H99.1193C96.4351 59.3143 95.623 57.6974 95.623 55.8096V48.4786C95.623 46.5908 96.5976 44.957 99.1193 44.957H104.761C105.069 44.957 105.137 45.1009 105.137 45.3888V46.2522C105.137 46.557 105.078 46.6586 104.761 46.6586H99.1364C97.9995 46.6586 97.5037 47.1496 97.5037 48.2162V50.8743H104.077C104.385 50.8743 104.454 51.0013 104.454 51.3061V52.0849C104.454 52.3473 104.394 52.4912 104.077 52.4912H97.5037V56.0551C97.5037 56.9779 97.9568 57.5874 99.1364 57.5874H104.864C105.197 57.5874 105.257 57.7143 105.257 58.0191V58.8826C105.257 59.1704 105.197 59.3143 104.864 59.3143" fill="white"/>
<path id="Vector_4" d="M116.823 45.3236C116.823 45.0358 116.943 44.9766 117.217 44.9766H118.336C118.627 44.9766 118.73 45.0358 118.73 45.3236V58.9614C118.73 59.2492 118.627 59.3084 118.336 59.3084H117.217C116.952 59.3084 116.823 59.2492 116.823 58.9614V52.57H109.523V58.9614C109.523 59.2492 109.42 59.3084 109.13 59.3084H107.993C107.745 59.3084 107.6 59.2492 107.6 58.9614V45.3236C107.6 45.0358 107.745 44.9766 107.993 44.9766H109.13C109.42 44.9766 109.523 45.0358 109.523 45.3236V50.9362H116.823V45.3236Z" fill="white"/>
<path id="Vector_5" d="M124.909 46.6364H120.875C120.627 46.6364 120.584 46.5518 120.584 46.3063V45.2989C120.584 45.0703 120.627 44.9688 120.875 44.9688H131.005C131.252 44.9688 131.295 45.0703 131.295 45.2989V46.3063C131.295 46.5518 131.252 46.6364 131.005 46.6364H126.85V58.962C126.85 59.2498 126.747 59.3091 126.474 59.3091H125.294C125.029 59.3091 124.901 59.2498 124.901 58.962V46.6364H124.909Z" fill="white"/>
<path id="Vector_6" d="M141.477 57.0404C141.784 56.9219 141.887 57.0827 141.955 57.2013L142.349 58.0563C142.511 58.3864 142.434 58.4626 142.246 58.5896C140.904 59.3684 139.186 59.5292 137.861 59.5292C133.997 59.5292 131.697 57.2944 131.697 52.3421C131.697 47.737 134.245 44.7656 138.006 44.7656C139.186 44.7656 140.468 44.9095 141.853 45.6037C142.015 45.6884 142.101 45.8069 141.955 46.0778L141.477 47.0174C141.391 47.1783 141.331 47.2629 141.101 47.1613C140.169 46.755 139.134 46.5264 138.083 46.5264C134.937 46.5264 133.638 49.3708 133.638 52.3421C133.638 55.3135 134.715 57.7684 138.186 57.7684C139.382 57.7684 140.502 57.4637 141.477 57.0319" fill="white"/>
<path id="Vector_7" d="M147.964 46.6364H143.929C143.681 46.6364 143.639 46.5518 143.639 46.3063V45.2989C143.639 45.0703 143.681 44.9688 143.929 44.9688H154.059C154.307 44.9688 154.35 45.0703 154.35 45.2989V46.3063C154.35 46.5518 154.307 46.6364 154.059 46.6364H149.905V58.962C149.905 59.2498 149.802 59.3091 149.529 59.3091H148.349C148.084 59.3091 147.956 59.2498 147.956 58.962V46.6364H147.964Z" fill="white"/>
<path id="Vector_8" d="M161.95 52.3063H158.103V57.5887H161.95C164.326 57.5887 164.907 55.9887 164.907 54.9051C164.907 53.3729 163.873 52.3063 161.95 52.3063ZM158.103 50.7317H161.907C162.813 50.7317 164.266 50.3423 164.266 48.5815C164.266 47.4387 163.42 46.6599 162.078 46.6599H158.111V50.7402L158.103 50.7317ZM164.471 51.4513C166.19 52.0269 166.848 53.5845 166.848 55.0575C166.848 57.5971 164.805 59.3156 162.155 59.3156H157.257C156.513 59.3156 156.205 59.0108 156.205 58.2913V45.9996C156.205 45.28 156.47 44.9583 157.257 44.9583L161.864 44.9414C164.386 44.9414 166.224 45.9657 166.224 48.463C166.224 49.6905 165.54 50.7994 164.463 51.3074V51.4513H164.471Z" fill="white"/>
<path id="Vector_9" d="M174.499 46.4346C171.541 46.4346 170.199 49.0335 170.199 52.0895C170.199 55.4672 171.191 57.8629 174.414 57.8629C177.636 57.8629 178.654 55.1201 178.654 52.1657C178.654 49.2113 177.867 46.4346 174.499 46.4346ZM174.397 59.539C170.345 59.539 168.293 56.8978 168.293 52.1657C168.293 47.4335 170.9 44.75 174.439 44.75C178.491 44.75 180.603 47.5182 180.603 52.081C180.603 56.6438 178.474 59.5305 174.397 59.5305" fill="white"/>
<path id="Vector_10" d="M80.7643 76.5942C81.149 76.4334 81.2772 76.5349 81.3969 76.8397L82.0893 78.2957C82.2688 78.6767 82.209 78.8206 81.9697 78.9645C80.4993 79.8534 78.8238 80.0989 77.2424 80.0989C72.7801 80.0989 70.7969 77.3645 70.7969 72.8694C70.7969 68.3743 73.4554 65.4961 77.3877 65.4961C78.7811 65.4961 80.1317 65.6739 81.3969 66.368C81.7047 66.5289 81.7474 66.6304 81.5593 67.0791L80.9267 68.4759C80.7814 68.8399 80.7045 68.9246 80.3113 68.7807C79.3282 68.4336 78.5503 68.2558 77.533 68.2558C75.2848 68.2558 74.0795 70.2367 74.0795 72.8779C74.0795 75.5191 74.96 77.3137 77.6185 77.3137C78.9093 77.3137 79.8924 76.9328 80.7729 76.6027" fill="white"/>
<path id="Vector_11" d="M93.9378 68.3319H90.2363V79.4554C90.2363 79.8025 90.1508 79.8787 89.7491 79.8787H87.5607C87.2358 79.8787 87.0905 79.7771 87.0905 79.4554V68.3319H83.4745C83.1924 68.3319 83.0898 68.2134 83.0898 67.9256V66.1225C83.0898 65.7754 83.1753 65.6992 83.4745 65.6992H93.9463C94.2712 65.6992 94.3567 65.7839 94.3567 66.1225V67.9256C94.3567 68.205 94.237 68.3319 93.9463 68.3319" fill="white"/>
<path id="Vector_12" d="M101.871 68.3886H99.2124V72.2403H101.888C103.281 72.2403 103.914 71.3853 103.914 70.3187C103.914 69.5484 103.521 68.3971 101.871 68.3971M99.2124 79.4528C99.2124 79.8169 99.127 79.8761 98.7252 79.8761H96.5795C96.2547 79.8761 96.1094 79.7745 96.1094 79.4528V66.9156C96.1094 66.1707 96.3573 65.6797 97.3318 65.6797H102.341C105.307 65.6797 107.128 67.5421 107.128 70.1155C107.128 71.4869 106.538 74.7292 101.931 74.7292H99.2124V79.4528Z" fill="white"/>
<path id="Vector_13" d="M110.975 74.4094H114.189L113.411 71.836L112.659 68.9408H112.539L111.761 71.836L110.984 74.4094H110.975ZM114.924 76.9237H110.24L109.445 79.4971C109.359 79.7596 109.257 79.8781 108.872 79.8781H106.479C106.196 79.8781 106.128 79.6749 106.196 79.4717L110.454 66.7737C110.736 65.8425 111.112 65.6816 111.95 65.6562H113.172C114.095 65.6562 114.437 65.7748 114.77 66.7737L119.028 79.4717C119.087 79.6326 119.045 79.8781 118.763 79.8781H116.326C116.019 79.8781 115.813 79.8357 115.736 79.5564L114.941 76.9237H114.924Z" fill="white"/>
<path id="Vector_14" d="M129.381 68.3319H125.68V79.4554C125.68 79.8025 125.594 79.8787 125.192 79.8787H123.004C122.679 79.8787 122.534 79.7771 122.534 79.4554V68.3319H118.918C118.636 68.3319 118.533 68.2134 118.533 67.9256V66.1225C118.533 65.7754 118.619 65.6992 118.918 65.6992H129.39C129.715 65.6992 129.8 65.7839 129.8 66.1225V67.9256C129.8 68.205 129.68 68.3319 129.39 68.3319" fill="white"/>
<path id="Vector_15" d="M141.39 79.8761H135.338C132.312 79.8761 131.551 77.9968 131.551 76.1513V69.4298C131.551 67.5082 132.551 65.6797 135.312 65.6797H141.185C141.51 65.6797 141.578 65.7813 141.578 66.1622V67.8807C141.578 68.2278 141.501 68.3293 141.185 68.3293H135.987C134.919 68.3293 134.654 68.8796 134.654 69.5822V71.1398H140.527C140.851 71.1398 140.911 71.2414 140.911 71.6224V73.2054C140.911 73.5271 140.851 73.671 140.527 73.671H134.654V75.982C134.654 76.9132 135.124 77.2011 135.987 77.2011H141.39C141.74 77.2011 141.8 77.2857 141.8 77.6836V79.4021C141.8 79.7237 141.715 79.8676 141.39 79.8676" fill="white"/>
<path id="Vector_16" d="M147.195 79.4528C147.195 79.8169 147.135 79.8761 146.725 79.8761H144.562C144.237 79.8761 144.092 79.7745 144.092 79.4528V69.4298C144.092 67.5082 145.032 65.6797 147.853 65.6797H153.743C154.093 65.6797 154.153 65.7813 154.153 66.1707V67.8891C154.153 68.2362 154.068 68.3378 153.743 68.3378H148.528C147.468 68.3378 147.195 68.8627 147.195 69.5907V79.4528Z" fill="white"/>
<path id="Vector_17" d="M164.821 70.3949L163 73.434L159.547 78.9872C159.077 79.7407 158.854 79.8761 158.017 79.8761H157.196C156.136 79.8761 155.871 79.3259 155.871 78.4793V66.0606C155.871 65.7813 155.991 65.6797 156.299 65.6797H158.487C158.854 65.6797 158.914 65.7643 158.914 66.0606V75.1778H159.034L160.769 72.3419L164.308 66.5939C164.779 65.8236 165.001 65.6797 165.821 65.6797H166.659C167.659 65.6797 167.993 66.0437 167.993 67.0934V79.4867C167.993 79.7661 167.873 79.8676 167.565 79.8676H165.377C165.009 79.8676 164.924 79.783 164.924 79.4867V70.3949H164.821Z" fill="white"/>
<path id="Vector_18" d="M181.226 79.8761H178.995C178.67 79.8761 178.568 79.7745 178.568 79.4952V74.8985C177.773 75.017 176.909 75.0762 176.132 75.0762C171.874 75.0762 170.361 73.1292 170.361 70.014V66.0606C170.361 65.7813 170.481 65.6797 170.789 65.6797H173.037C173.387 65.6797 173.464 65.7643 173.464 66.0606V69.7092C173.464 71.6139 174.447 72.3589 176.533 72.3589C177.183 72.3589 177.901 72.2996 178.559 72.1811V66.0606C178.559 65.7813 178.662 65.6797 178.987 65.6797H181.218C181.585 65.6797 181.671 65.7643 181.671 66.0606V79.4867C181.671 79.7915 181.585 79.8676 181.218 79.8676" fill="white"/>
<path id="Vector_19" d="M194.587 79.8761H188.535C185.509 79.8761 184.748 77.9968 184.748 76.1513V69.4298C184.748 67.5082 185.748 65.6797 188.509 65.6797H194.382C194.707 65.6797 194.767 65.7813 194.767 66.1622V67.8807C194.767 68.2278 194.681 68.3293 194.382 68.3293H189.185C188.125 68.3293 187.851 68.8796 187.851 69.5822V71.1398H193.724C194.049 71.1398 194.109 71.2414 194.109 71.6224V73.2054C194.109 73.5271 194.049 73.671 193.724 73.671H187.851V75.982C187.851 76.9132 188.321 77.2011 189.185 77.2011H194.587C194.938 77.2011 194.998 77.2857 194.998 77.6836V79.4021C194.998 79.7237 194.912 79.8676 194.587 79.8676" fill="white"/>
<path id="Vector_20" d="M206.426 76.5942C206.82 76.4334 206.939 76.5349 207.059 76.8397L207.751 78.2957C207.931 78.6767 207.871 78.8206 207.632 78.9645C206.161 79.8534 204.486 80.0989 202.904 80.0989C198.442 80.0989 196.459 77.3645 196.459 72.8694C196.459 68.3743 199.118 65.4961 203.05 65.4961C204.443 65.4961 205.794 65.6739 207.059 66.368C207.367 66.5289 207.41 66.6304 207.221 67.0791L206.589 68.4759C206.444 68.8399 206.367 68.9246 205.973 68.7807C204.99 68.4336 204.212 68.2558 203.195 68.2558C200.947 68.2558 199.742 70.2367 199.742 72.8779C199.742 75.5191 200.622 77.3137 203.281 77.3137C204.571 77.3137 205.554 76.9328 206.426 76.6027" fill="white"/>
<path id="Vector_21" d="M218.327 72.3172C219.737 72.7828 220.088 73.5701 220.395 74.7637L221.661 79.462C221.703 79.6059 221.72 79.8683 221.378 79.8683H219.002C218.857 79.8683 218.677 79.8514 218.592 79.5889L217.344 75.2377C216.933 73.841 216.215 73.5362 214.788 73.5362H213.112L213.129 79.5551C213.129 79.8429 213.027 79.8768 212.762 79.8768H210.385C210.137 79.8768 210.018 79.8344 210.018 79.5551V66.0274C210.018 65.7396 210.137 65.7057 210.385 65.7057H212.779C213.044 65.7057 213.146 65.7481 213.104 66.0274V71.1913H214.736C215.557 71.1913 216.634 71.0305 217.087 69.3712L218.01 65.9512C218.07 65.6888 218.275 65.6719 218.421 65.6719H220.712C221.062 65.6719 221.036 65.9343 221.002 66.0782L220.062 69.7014C219.797 70.8358 219.181 71.7246 218.318 72.2325V72.3341L218.327 72.3172Z" fill="white"/>
<path id="Vector_22" d="M232.765 70.3949L230.944 73.434L227.49 78.9872C227.02 79.7407 226.798 79.8761 225.96 79.8761H225.139C224.071 79.8761 223.814 79.3259 223.814 78.4793V66.0606C223.814 65.7813 223.934 65.6797 224.242 65.6797H226.43C226.798 65.6797 226.858 65.7643 226.858 66.0606V75.1778H226.977L228.713 72.3419L232.252 66.5939C232.722 65.8236 232.944 65.6797 233.765 65.6797H234.603C235.603 65.6797 235.928 66.0437 235.928 67.0934V79.4867C235.928 79.7661 235.808 79.8676 235.5 79.8676H233.312C232.944 79.8676 232.859 79.783 232.859 79.4867V70.3949H232.756H232.765Z" fill="white"/>
<path id="Vector_23" d="M243.767 75.017L241.297 79.4105C241.049 79.7745 240.903 79.8761 240.399 79.8761H237.886C237.638 79.8761 237.578 79.656 237.681 79.4698L242.04 72.5028L238.048 66.0606C237.929 65.8998 237.988 65.6797 238.296 65.6797H240.69C241.22 65.6797 241.365 65.7643 241.57 66.1284L243.818 70.0817L246.05 66.1284C246.255 65.7643 246.4 65.6797 246.93 65.6797H249.281C249.589 65.6797 249.631 65.8998 249.503 66.086L245.554 72.4858L249.913 79.4782C250.016 79.656 249.93 79.8846 249.708 79.8846H247.152C246.665 79.8846 246.494 79.783 246.272 79.419L243.776 75.0255L243.767 75.017Z" fill="white"/>
<path id="Vector_24" d="M80.9959 90.9574L79.175 93.9965L75.7215 99.5497C75.2513 100.295 75.0291 100.439 74.1913 100.439H73.3707C72.3021 100.439 72.0371 99.8884 72.0371 99.0418V86.6231C72.0371 86.3438 72.1568 86.2422 72.4645 86.2422H74.6529C75.0205 86.2422 75.0803 86.3268 75.0803 86.6231V95.7403H75.2L76.9354 92.9044L80.4744 87.1564C80.9446 86.3861 81.1668 86.2422 81.9875 86.2422H82.8252C83.8254 86.2422 84.1502 86.6062 84.1502 87.6559V100.049C84.1502 100.329 84.0305 100.43 83.7228 100.43H81.5344C81.1668 100.43 81.0813 100.345 81.0813 100.049V90.9574H80.9788H80.9959Z" fill="white"/>
<path id="Vector_25" d="M98.5202 100.441H96.3746C96.0241 100.441 95.9044 100.339 95.9044 100.017V94.3455H90.365V100.017C90.365 100.364 90.2796 100.441 89.8778 100.441H87.7065C87.3816 100.441 87.2363 100.339 87.2363 100.017V86.6928C87.2363 86.3711 87.3816 86.2695 87.7065 86.2695H89.8778C90.2881 86.2695 90.365 86.3542 90.365 86.6928V91.7382H95.9044V86.6928C95.9044 86.3711 96.0241 86.2695 96.3746 86.2695H98.5202C98.9306 86.2695 99.0075 86.3542 99.0075 86.6928V100.017C99.0075 100.364 98.922 100.441 98.5202 100.441Z" fill="white"/>
<path id="Vector_26" d="M111.036 90.9574L109.215 93.9965L105.762 99.5497C105.292 100.295 105.069 100.439 104.232 100.439H103.411C102.351 100.439 102.086 99.8884 102.086 99.0418V86.6231C102.086 86.3438 102.206 86.2422 102.513 86.2422H104.702C105.069 86.2422 105.129 86.3268 105.129 86.6231V95.7403H105.249L106.984 92.9044L110.523 87.1564C110.993 86.3861 111.216 86.2422 112.036 86.2422H112.874C113.874 86.2422 114.199 86.6062 114.199 87.6559V100.049C114.199 100.329 114.079 100.43 113.772 100.43H111.583C111.216 100.43 111.13 100.345 111.13 100.049V90.9574H111.028H111.036Z" fill="white"/>
<path id="Vector_27" d="M129.039 97.7245L130.065 97.8261C130.8 97.8853 130.86 98.2324 130.843 98.7149L130.621 103.396C130.604 103.659 130.501 103.803 130.227 103.803H128.509C128.227 103.803 128.125 103.684 128.099 103.379L127.979 100.442H118.593C117.653 100.442 117.285 99.9932 117.285 99.0874V86.6349C117.285 86.3555 117.405 86.2539 117.713 86.2539H119.961C120.328 86.2539 120.414 86.3386 120.414 86.6349V97.7922H125.936V86.6349C125.936 86.3555 126.056 86.2539 126.346 86.2539H128.595C128.988 86.2539 129.048 86.3386 129.048 86.6349V97.733L129.039 97.7245Z" fill="white"/>
<path id="Vector_28" d="M141.45 90.9574L139.629 93.9965L136.176 99.5497C135.706 100.295 135.483 100.439 134.646 100.439H133.825C132.765 100.439 132.5 99.8884 132.5 99.0418V86.6231C132.5 86.3438 132.62 86.2422 132.927 86.2422H135.116C135.483 86.2422 135.543 86.3268 135.543 86.6231V95.7403H135.663L137.398 92.9044L140.937 87.1564C141.407 86.3861 141.63 86.2422 142.45 86.2422H143.288C144.288 86.2422 144.622 86.6062 144.622 87.6559V100.049C144.622 100.329 144.502 100.43 144.194 100.43H142.006C141.638 100.43 141.553 100.345 141.553 100.049V90.9574H141.45Z" fill="white"/>
<path id="Vector_29" d="M150.82 94.9719H154.034L153.256 92.3985L152.495 89.5033H152.376L151.598 92.3985L150.82 94.9719ZM154.769 97.4862H150.085L149.29 100.06C149.204 100.322 149.11 100.441 148.717 100.441H146.323C146.033 100.441 145.973 100.237 146.033 100.034L150.29 87.3362C150.572 86.405 150.939 86.2441 151.786 86.2188H153.017C153.94 86.2188 154.282 86.3373 154.615 87.3362L158.872 100.034C158.932 100.195 158.889 100.441 158.607 100.441H156.171C155.863 100.441 155.658 100.398 155.581 100.119L154.786 97.4862H154.769Z" fill="white"/>
<path id="Vector_30" d="M169.224 88.8944H165.522V100.018C165.522 100.365 165.437 100.441 165.026 100.441H162.838C162.513 100.441 162.368 100.34 162.368 100.018V88.8944H158.752C158.47 88.8944 158.367 88.7759 158.367 88.4881V86.685C158.367 86.3379 158.453 86.2617 158.752 86.2617H169.224C169.549 86.2617 169.634 86.3464 169.634 86.685V88.4881C169.634 88.7675 169.514 88.8944 169.224 88.8944Z" fill="white"/>
<path id="Vector_31" d="M180.354 90.9574L178.534 93.9965L175.08 99.5497C174.61 100.295 174.388 100.439 173.55 100.439H172.729C171.669 100.439 171.404 99.8884 171.404 99.0418V86.6231C171.404 86.3438 171.524 86.2422 171.832 86.2422H174.02C174.388 86.2422 174.448 86.3268 174.448 86.6231V95.7403H174.567L176.303 92.9044L179.842 87.1564C180.312 86.3861 180.534 86.2422 181.355 86.2422H182.192C183.193 86.2422 183.517 86.6062 183.517 87.6559V100.049C183.517 100.329 183.398 100.43 183.09 100.43H180.902C180.534 100.43 180.449 100.345 180.449 100.049V90.9574H180.346H180.354Z" fill="white"/>
<path id="Vector_32" d="M192.639 94.098H189.69V97.7212H192.639C194.195 97.7212 194.622 96.6885 194.622 95.9181C194.622 94.843 193.93 94.098 192.639 94.098ZM189.69 91.6262H192.468C193.143 91.6262 193.998 91.3637 193.998 90.2294C193.998 89.4167 193.443 88.9342 192.562 88.9342H189.681V91.6262H189.69ZM195.639 92.6759C197.195 93.2854 197.828 94.7414 197.828 96.1213C197.828 98.6947 195.682 100.439 192.938 100.439H187.809C186.826 100.439 186.578 100.075 186.578 99.2027V87.4951C186.578 86.6485 186.826 86.2422 187.809 86.2422H192.818C195.298 86.2422 197.212 87.275 197.212 89.823C197.212 90.9405 196.554 92.0325 195.639 92.5404V92.6843V92.6759Z" fill="white"/>
<g id="Mask group">
<mask id="mask0_96_102" style="mask-type:luminance" maskUnits="userSpaceOnUse" x="38" y="8" width="39" height="15">
<path id="clippath" d="M38.3906 8.24609L63.9931 22.8489L76.7816 15.5094L38.3906 8.24609Z" fill="white"/>
</mask>
<g mask="url(#mask0_96_102)">
<g id="Group_2">
<path id="Vector_33" d="M76.7816 8.24609H38.3906V22.8489H76.7816V8.24609Z" fill="url(#paint0_linear_96_102)"/>
</g>
</g>
</g>
<g id="Mask group_2">
<mask id="mask1_96_102" style="mask-type:luminance" maskUnits="userSpaceOnUse" x="0" y="0" width="39" height="16">
<path id="clippath-1" d="M0 0.972656L25.6025 15.5754L38.3909 8.24441L0 0.972656Z" fill="white"/>
</mask>
<g mask="url(#mask1_96_102)">
<g id="Group_3">
<path id="Vector_34" d="M38.3909 0.972656H0V15.5754H38.3909V0.972656Z" fill="url(#paint1_linear_96_102)"/>
</g>
</g>
</g>
<g id="Mask group_3">
<mask id="mask2_96_102" style="mask-type:luminance" maskUnits="userSpaceOnUse" x="25" y="30" width="40" height="15">
<path id="clippath-2" d="M25.6191 30.2188L51.2216 44.8215L64.0101 37.4905L25.6191 30.2188Z" fill="white"/>
</mask>
<g mask="url(#mask2_96_102)">
<g id="Group_4">
<path id="Vector_35" d="M64.0101 30.2188H25.6191V44.8215H64.0101V30.2188Z" fill="url(#paint2_linear_96_102)"/>
</g>
</g>
</g>
<path id="Vector_36" d="M76.7826 15.5078L64.0112 37.4924L63.9941 22.8473L76.7826 15.5078Z" fill="#4A7EC0"/>
<path id="Vector_37" d="M64.0111 37.4922L51.2398 59.4768L51.2227 44.8232L64.0111 37.4922Z" fill="#888D92"/>
<path id="Vector_38" d="M38.39 8.24609L25.6187 30.2222L25.6016 15.5771L38.39 8.24609Z" fill="#853347"/>
</g>
</g>
<defs>
<linearGradient id="paint0_linear_96_102" x1="38.9456" y1="16.2854" x2="77.3365" y2="16.2854" gradientUnits="userSpaceOnUse">
<stop stop-color="#BDE0F1"/>
<stop offset="0.18" stop-color="#B8DCEE"/>
<stop offset="0.38" stop-color="#ABD2E8"/>
<stop offset="0.58" stop-color="#96C1DE"/>
<stop offset="0.79" stop-color="#78AAD0"/>
<stop offset="0.99" stop-color="#538CBE"/>
<stop offset="1" stop-color="#528CBE"/>
</linearGradient>
<linearGradient id="paint1_linear_96_102" x1="0.546415" y1="9.02043" x2="38.9373" y2="9.02043" gradientUnits="userSpaceOnUse">
<stop stop-color="#E9B0B2"/>
<stop offset="1" stop-color="#D24A43"/>
</linearGradient>
<linearGradient id="paint2_linear_96_102" x1="26.2929" y1="38.5334" x2="58.3238" y2="38.5334" gradientUnits="userSpaceOnUse">
<stop stop-color="#E2E3E4"/>
<stop offset="1" stop-color="#D5D6D7"/>
</linearGradient>
</defs>
</svg>
