<svg width="103" height="103" viewBox="0 0 103 103" fill="none" xmlns="http://www.w3.org/2000/svg">
<path fill-rule="evenodd" clip-rule="evenodd" d="M51.4997 68.6667C68.0913 68.6667 81.5413 55.2166 81.5413 38.625C81.5413 22.0335 68.0913 8.58337 51.4997 8.58337C34.9081 8.58337 21.458 22.0335 21.458 38.625C21.458 55.2166 34.9081 68.6667 51.4997 68.6667ZM51.4997 25.75C50.2804 25.75 49.465 27.2128 47.8342 30.1383L47.4123 30.8952C46.9492 31.7265 46.7175 32.1422 46.3561 32.4165C45.9948 32.6907 45.545 32.7925 44.645 32.9961L43.8257 33.1815C40.6588 33.8981 39.0753 34.2563 38.6986 35.4677C38.3219 36.6792 39.4013 37.9415 41.5603 40.4661L42.1189 41.1192C42.7324 41.8366 43.0391 42.1953 43.1773 42.6391C43.315 43.0828 43.2687 43.5613 43.176 44.5188L43.0914 45.39C42.7651 48.7585 42.6019 50.4426 43.588 51.1915C44.5746 51.9399 46.057 51.2576 49.0221 49.8924L49.789 49.5392C50.6319 49.1512 51.0529 48.9572 51.4997 48.9572C51.9464 48.9572 52.3674 49.1512 53.2103 49.5392L53.9773 49.8924C56.9424 51.2576 58.4247 51.9399 59.4114 51.1915C60.3976 50.4426 60.2341 48.7585 59.9079 45.39L59.8234 44.5188C59.7307 43.5613 59.6843 43.0828 59.8221 42.6391C59.9603 42.1953 60.2671 41.8366 60.8804 41.1193L61.4392 40.4661C63.5979 37.9415 64.6777 36.6792 64.3009 35.4677C63.924 34.2563 62.3404 33.8981 59.1736 33.1815L58.3543 32.9961C57.4544 32.7925 57.0046 32.6907 56.6432 32.4165C56.2819 32.1422 56.0501 31.7265 55.5871 30.8952L55.1652 30.1383C53.5344 27.2128 52.7189 25.75 51.4997 25.75Z" fill="url(#paint0_linear_1_8466)"/>
<path d="M19.2914 55.7686L12.8406 62.4481C10.5226 64.848 9.36357 66.048 8.96251 67.0642C8.0486 69.38 8.83071 71.949 10.8206 73.167C11.6939 73.7017 13.2689 73.8682 16.4191 74.2017C18.1976 74.3897 19.0871 74.4837 19.8319 74.769C21.4995 75.4085 22.7966 76.7514 23.4139 78.4779C23.6897 79.2491 23.7805 80.1701 23.9622 82.0117C24.284 85.2733 24.4449 86.9042 24.9612 87.8084C26.1377 89.8688 28.6187 90.6787 30.8553 89.7324C31.8368 89.3169 32.9958 88.117 35.3139 85.7171L45.966 74.6875C34.389 72.9258 24.6006 65.7226 19.2914 55.7686Z" fill="url(#paint1_linear_1_8466)"/>
<path d="M57.0332 74.6875L67.6855 85.7171C70.0035 88.117 71.1622 89.3169 72.1437 89.7324C74.3806 90.6787 76.8616 89.8688 78.0379 87.8084C78.5542 86.9042 78.7151 85.2733 79.037 82.0117C79.2185 80.1701 79.3095 79.2491 79.5851 78.4779C80.2026 76.7514 81.4996 75.4085 83.1673 74.769C83.9123 74.4837 84.8016 74.3897 86.58 74.2017C89.7301 73.8682 91.3052 73.7017 92.1785 73.167C94.1686 71.949 94.9505 69.38 94.0368 67.0642C93.6355 66.048 92.4768 64.848 90.1584 62.4481L83.7076 55.7686C78.3984 65.7226 68.61 72.9258 57.0332 74.6875Z" fill="url(#paint2_linear_1_8466)"/>
<defs>
<linearGradient id="paint0_linear_1_8466" x1="51.4997" y1="8.58337" x2="51.4997" y2="68.6667" gradientUnits="userSpaceOnUse">
<stop stop-color="#5CC3FD"/>
<stop offset="1" stop-color="#364CA6"/>
</linearGradient>
<linearGradient id="paint1_linear_1_8466" x1="27.2745" y1="55.7686" x2="27.2745" y2="90.1253" gradientUnits="userSpaceOnUse">
<stop stop-color="#5CC3FD"/>
<stop offset="1" stop-color="#364CA6"/>
</linearGradient>
<linearGradient id="paint2_linear_1_8466" x1="75.7247" y1="55.7686" x2="75.7247" y2="90.1253" gradientUnits="userSpaceOnUse">
<stop stop-color="#5CC3FD"/>
<stop offset="1" stop-color="#364CA6"/>
</linearGradient>
</defs>
</svg>
