<svg width="162" height="114" viewBox="0 0 162 114" fill="none" xmlns="http://www.w3.org/2000/svg">
<g id="&#208;&#161;&#208;&#187;&#208;&#190;&#208;&#185;_x0020_1">
<g id="_2224315200">
<path id="Vector" d="M47.1124 64.2371C45.0171 64.2371 43.3409 63.5194 41.964 62.1438C40.5871 60.7681 39.9286 59.0336 39.9286 57C39.9286 54.9664 40.5871 53.2319 41.964 51.8562C43.3409 50.4806 45.077 49.7629 47.1124 49.7629C49.1478 49.7629 50.824 50.4806 52.2009 51.8562C53.5778 53.2319 54.2363 54.9664 54.2363 57C54.2363 59.0934 53.5778 60.7681 52.2009 62.1438C50.824 63.5194 49.1478 64.2371 47.1124 64.2371ZM104.164 1.55509C119.489 1.55509 133.378 7.77545 143.435 17.8237C153.493 27.872 159.719 41.7482 159.719 57.0598C159.719 72.3715 153.493 86.2476 143.435 96.2959C133.378 106.344 119.489 112.565 104.164 112.565C88.8383 112.565 74.9496 106.344 64.8923 96.2959C57.3493 88.7597 51.9614 79.0703 49.7464 68.2445C52.0213 67.8258 53.937 66.809 55.6132 65.1941C57.8881 62.9213 58.9657 60.2298 58.9657 57.0598C58.9657 53.8898 57.8881 51.1983 55.6132 48.9853C53.9969 47.3704 52.0213 46.3536 49.7464 45.9349C51.9614 35.1091 57.3493 25.4197 64.8923 17.8835C74.9496 7.71563 88.8383 1.55509 104.164 1.55509ZM48.2498 68.3641C50.5247 79.5488 56.0323 89.5372 63.8147 97.3127C74.1115 107.6 88.4193 114 104.164 114C119.908 114 134.156 107.6 144.513 97.3127C154.81 87.0252 161.215 72.7303 161.215 57C161.215 41.2697 154.81 27.0346 144.513 16.6873C134.156 6.39979 119.908 0 104.164 0C88.4193 0 74.1714 6.39979 63.8147 16.6873C56.0323 24.4627 50.5247 34.4512 48.2498 45.6359C47.8906 45.6359 47.5314 45.5761 47.1124 45.5761C43.6402 45.5761 40.8265 46.6527 38.5517 48.8657C36.2768 51.0787 35.1992 53.7702 35.1992 56.9402C35.1992 60.17 36.2768 62.8615 38.5517 65.0745C40.8265 67.2875 43.6402 68.3641 47.1124 68.3641C47.5314 68.4239 47.8906 68.3641 48.2498 68.3641Z" fill="#AA232B"/>
<path id="Vector_2" d="M86.2057 87.3248C87.7024 87.3248 88.8398 86.7865 89.618 85.7697V87.0856H91.7133V72.6113H89.618V78.7718C88.8398 77.755 87.7024 77.2167 86.2057 77.2167C84.8288 77.2167 83.7513 77.6952 82.8533 78.712C81.9553 79.669 81.5362 80.8652 81.5362 82.3007C81.5362 83.7361 81.9553 84.9324 82.8533 85.8893C83.7513 86.8463 84.8887 87.3248 86.2057 87.3248ZM86.8044 85.4706C85.9064 85.4706 85.188 85.1716 84.5894 84.5735C83.9907 83.9754 83.6914 83.1978 83.6914 82.3007C83.6914 81.4035 83.9907 80.6858 84.5894 80.0278C85.188 79.4297 85.9064 79.0709 86.8044 79.0709C88.0615 79.0709 89.1391 79.7886 89.6779 80.7456V83.7361C89.0793 84.7529 88.0017 85.4706 86.8044 85.4706ZM97.0413 87.0257V77.456H94.946V87.0257H97.0413ZM96.0236 74.9439C96.742 74.9439 97.3406 74.4056 97.3406 73.628C97.3406 72.8505 96.742 72.2524 96.0236 72.2524C95.2454 72.2524 94.7066 72.8505 94.7066 73.628C94.6467 74.4056 95.2454 74.9439 96.0236 74.9439ZM107.637 78.712C106.859 77.6952 105.722 77.2167 104.225 77.2167C102.848 77.2167 101.771 77.6952 100.873 78.6522C99.9747 79.6092 99.5556 80.7456 99.5556 82.1212C99.5556 83.4969 99.9747 84.6333 100.873 85.6501C101.771 86.6071 102.848 87.0856 104.225 87.0856C105.722 87.0856 106.859 86.6071 107.637 85.5903V86.308C107.637 88.3416 106.141 89.4182 104.105 89.4182C102.788 89.4182 101.591 89.1191 100.573 88.4612V90.3752C101.591 90.9135 102.848 91.2125 104.345 91.2125C105.841 91.2125 107.099 90.7938 108.176 89.9565C109.254 89.1191 109.733 87.8033 109.733 86.1884V77.456H107.637V78.712ZM104.764 85.1716C103.866 85.1716 103.148 84.8725 102.549 84.2744C101.95 83.6763 101.651 82.9586 101.651 82.1212C101.651 81.2839 101.95 80.5661 102.549 79.968C103.148 79.3699 103.866 79.0709 104.764 79.0709C106.021 79.0709 107.159 79.7288 107.637 80.7456V83.5567C107.159 84.4539 106.021 85.1716 104.764 85.1716ZM115.001 87.0257V77.456H112.906V87.0257H115.001ZM113.923 74.9439C114.642 74.9439 115.24 74.4056 115.24 73.628C115.24 72.8505 114.642 72.2524 113.923 72.2524C113.145 72.2524 112.606 72.8505 112.606 73.628C112.606 74.4056 113.145 74.9439 113.923 74.9439ZM119.191 84.4539C119.191 86.308 120.329 87.3248 122.125 87.3248C123.083 87.3248 123.801 87.1454 124.28 86.8463V85.052C123.801 85.2912 123.382 85.4108 122.843 85.4108C121.825 85.4108 121.347 84.9323 121.347 83.8557V79.3101H124.4V77.456H121.347V74.6448H119.251V77.456H117.216V79.3101H119.251L119.191 84.4539ZM135.714 85.4108C135.235 85.4108 134.936 85.052 134.936 84.4539V80.8652C134.936 78.5326 133.14 77.2167 130.506 77.2167C129.129 77.2167 127.992 77.5158 126.974 78.0541V79.9082C127.872 79.3699 128.89 79.0709 130.027 79.0709C131.883 79.0709 132.841 79.7886 132.841 81.1642V81.7025C131.943 81.2241 130.925 80.9848 129.788 80.9848C128.71 80.9848 127.812 81.2839 127.034 81.8222C126.315 82.3605 125.896 83.138 125.896 84.1548C125.896 85.1716 126.255 85.9491 126.914 86.5472C127.573 87.0855 128.47 87.3846 129.488 87.3846C130.985 87.3846 132.122 86.9061 133.02 85.8893C133.26 86.7865 133.978 87.265 135.056 87.265C135.594 87.265 136.013 87.1454 136.313 86.9659V85.351C136.133 85.351 135.954 85.4108 135.714 85.4108ZM132.841 84.3342C132.242 84.9922 131.224 85.4706 130.087 85.4706C128.83 85.4706 127.992 84.9922 127.992 83.9754C127.992 83.0184 128.83 82.4801 130.266 82.4801C131.164 82.4801 132.003 82.7193 132.841 83.138V84.3342ZM140.803 87.3248C141.401 87.3248 141.94 87.2052 142.359 87.0257V85.2314C142.12 85.351 141.88 85.4108 141.581 85.4108C140.863 85.4108 140.503 84.9922 140.503 84.2146V72.6113H138.408V84.8127C138.408 86.6071 139.426 87.3248 140.803 87.3248ZM4.84907 67.8264V44.3804L13.4696 56.0436H16.2833L24.9039 44.3804V67.8264H29.7529V36.9638H24.9039L14.9663 50.84L4.9688 36.9638H0V67.8264H4.84907ZM69.2639 67.8264V54.5483C70.2816 52.2755 72.9755 50.3017 76.3878 50.3017C76.8668 50.3017 77.2858 50.3615 77.7049 50.3615V45.5766C77.5852 45.5168 77.4654 45.5168 77.2858 45.5168C73.9334 45.5168 70.7605 47.3112 69.3238 49.8232V46.0551H64.5346V67.7067L69.2639 67.8264ZM86.9241 67.8264V46.1747H82.1349V67.8264H86.9241ZM84.5295 42.287C86.1459 42.287 87.4629 41.031 87.4629 39.2965C87.4629 37.5619 86.1459 36.2461 84.5295 36.2461C82.7934 36.2461 81.5362 37.5619 81.5362 39.2965C81.5362 41.031 82.8533 42.287 84.5295 42.287ZM104.524 64.2377C102.429 64.2377 100.753 63.52 99.376 62.1443C97.9991 60.7687 97.3406 59.0341 97.3406 57.0006C97.3406 54.967 97.9991 53.2325 99.376 51.8568C100.753 50.4811 102.489 49.7634 104.524 49.7634C106.56 49.7634 108.236 50.4811 109.613 51.8568C110.99 53.2325 111.648 54.967 111.648 57.0006C111.648 59.0939 110.99 60.7687 109.613 62.1443C108.236 63.52 106.56 64.2377 104.524 64.2377ZM104.524 68.4245C107.937 68.4245 110.81 67.3479 113.025 65.1349C115.3 62.862 116.378 60.1705 116.378 57.0006C116.378 53.8306 115.3 51.1391 113.025 48.9261C110.75 46.713 107.937 45.6364 104.524 45.6364C101.052 45.6364 98.2386 46.713 95.9637 48.9261C93.6889 51.1391 92.6113 53.8306 92.6113 57.0006C92.6113 60.2304 93.6889 62.9219 95.9637 65.1349C98.1787 67.2881 100.992 68.4245 104.524 68.4245ZM126.375 53.5913C127.632 51.6176 130.087 50.0625 132.481 50.0625C135.295 50.0625 137.57 51.4381 137.57 55.6847V67.8264H142.359V54.6081C142.359 48.9859 139.426 45.6364 134.337 45.6364C131.164 45.6364 128.53 46.7729 126.375 49.1055V46.2346H121.586V67.8862H126.375V53.5913Z" fill="white"/>
</g>
</g>
</svg>
