<svg width="50" height="50" viewBox="0 0 50 50" fill="none" xmlns="http://www.w3.org/2000/svg">
<g id="telegram-svgrepo-com 1">
<path id="Vector" d="M43.1451 7.61093C43.1451 7.61093 47.1923 6.0328 46.855 9.8654C46.7426 11.4435 45.7308 16.967 44.9439 22.9414L42.2457 40.639C42.2457 40.639 42.0209 43.2316 39.9973 43.6825C37.9736 44.1333 34.9383 42.1044 34.3761 41.6534C33.9265 41.3153 25.9446 36.2427 23.134 33.7628C22.347 33.0865 21.4476 31.7337 23.2464 30.1556L35.0507 18.8833C36.3998 17.5306 37.7489 14.3744 32.1277 18.207L16.3886 28.9157C16.3886 28.9157 14.5899 30.0429 11.2173 29.0284L3.90981 26.774C3.90981 26.774 1.21168 25.0831 5.82099 23.3922C17.0632 18.0942 30.8911 12.6834 43.1451 7.61093Z" fill="white"/>
</g>
</svg>
