<svg width="100" height="100" viewBox="0 0 100 100" fill="none" xmlns="http://www.w3.org/2000/svg">
<path fill-rule="evenodd" clip-rule="evenodd" d="M50 97C75.9574 97 97 75.9574 97 50C97 24.0426 75.9574 3 50 3C24.0426 3 3 24.0426 3 50C3 75.9574 24.0426 97 50 97ZM50 100C77.6142 100 100 77.6142 100 50C100 22.3858 77.6142 0 50 0C22.3858 0 0 22.3858 0 50C0 77.6142 22.3858 100 50 100Z" fill="#5CC3FD"/>
<path fill-rule="evenodd" clip-rule="evenodd" d="M38.3934 41.4853L47.9394 31.9393C48.5252 31.3536 49.4749 31.3536 50.0607 31.9393L59.6066 41.4853C60.1924 42.0711 60.1924 43.0208 59.6066 43.6066C59.0209 44.1924 58.0711 44.1924 57.4853 43.6066L50.5 36.6213L50.5 67L47.5 67L47.5 36.6213L40.5148 43.6066C39.929 44.1924 38.9792 44.1924 38.3934 43.6066C37.8077 43.0208 37.8077 42.0711 38.3934 41.4853Z" fill="#5CC3FD"/>
</svg>
