<svg width="190" height="53" viewBox="0 0 190 53" fill="none" xmlns="http://www.w3.org/2000/svg">
<g id="logo 1" clip-path="url(#clip0_96_83)">
<path id="Vector" d="M162.71 0.851562H168.788C174.401 0.861431 179.78 3.08988 183.742 7.04677L183.772 7.07676C185.743 9.02769 187.307 11.3472 188.375 13.9019C189.442 16.4566 189.992 19.1961 189.992 21.9628C189.992 24.7296 189.442 27.4691 188.375 30.0238C187.307 32.5785 185.743 34.898 183.772 36.8489L183.742 36.8789C181.78 38.8383 179.45 40.394 176.884 41.457C174.318 42.5199 171.567 43.0695 168.788 43.0741H135.695V27.9502H168.788C169.574 27.9563 170.353 27.808 171.082 27.5139C171.81 27.2199 172.473 26.7858 173.032 26.2365L173.063 26.2065C174.181 25.0832 174.809 23.5657 174.809 21.9843C174.809 20.4028 174.181 18.8853 173.063 17.762L173.032 17.732C172.473 17.1827 171.81 16.7486 171.082 16.4546C170.353 16.1605 169.574 16.0123 168.788 16.0183H168.263V15.9883H155.113V0.851562H162.71Z" fill="#243468"/>
<path id="Vector_2" d="M166.334 43.077H144.472L135.699 27.9531H157.562L166.334 43.077Z" fill="#004F94"/>
<path id="Vector_3" d="M157.046 27.9531H135.695V52.0356H157.046V27.9531Z" fill="#018CCD"/>
<path id="Vector_4" d="M150.894 0.851562H160.601L164.302 15.9454H142.414L150.894 0.851562Z" fill="#243468"/>
<path id="Vector_5" d="M131.11 0.851562H109.76V52.037H131.11V0.851562Z" fill="#018CCD"/>
<path id="Vector_6" d="M109.76 29.077V4.99455L116.97 0.851562H131.11V16.8109L109.76 29.077Z" fill="#004F94"/>
<path id="Vector_7" d="M93.4674 0.851562H72.1172V52.037H93.4674V0.851562Z" fill="#DD2A1B"/>
<path id="Vector_8" d="M85.7194 52.0382H72.1172V35.7705L93.4674 23.5V47.5868L85.7194 52.0382Z" fill="#A52822"/>
<path id="Vector_9" d="M93.4674 52.037H72.1172L109.76 0.851562H131.11L93.4674 52.037Z" fill="#DD2A1B"/>
<path id="Vector_10" d="M67.3385 27.9531H45.9883V52.0356H67.3385V27.9531Z" fill="#DD2A1B"/>
<path id="Vector_11" d="M21.3502 52.037H0L37.6427 0.851562H58.993L21.3502 52.037Z" fill="#DD2A1B"/>
<path id="Vector_12" d="M46.3683 27.9531H20.791V43.6854H46.3683V27.9531Z" fill="#DD2A1B"/>
<path id="Vector_13" d="M46.3678 43.6854H36.1016L45.989 27.9531H46.3678V43.6854Z" fill="#A82210"/>
</g>
<defs>
<clipPath id="clip0_96_83">
<rect width="190" height="51.1855" fill="white" transform="translate(0 0.851562)"/>
</clipPath>
</defs>
</svg>
