<svg width="218" height="103" viewBox="0 0 218 103" fill="none" xmlns="http://www.w3.org/2000/svg">
<rect y="9.58594" width="19.7937" height="37.2208" fill="#51C7E1"/>
<rect y="58.5039" width="19.7937" height="37.2208" fill="black"/>
<rect x="83.2988" y="56.7344" width="17.0152" height="43.2987" transform="rotate(90 83.2988 56.7344)" fill="#EED763"/>
<rect x="83.2988" y="78.7109" width="17.0152" height="43.2987" transform="rotate(90 83.2988 78.7109)" fill="#51C7E1"/>
<rect x="31.752" y="9.58594" width="19.7937" height="37.2208" fill="#F67065"/>
<rect x="63.5039" y="9.58594" width="19.7937" height="37.2208" fill="#5C71B2"/>
<path d="M111.165 22.1167H112.788V27.8719H109.802V24.9727H99.8497V9.82748H102.835V22.1167H108.18V9.82748H111.165V22.1167ZM123.55 24.9727V15.7341L117.06 24.9727H114.788V9.82748H117.774V19.0877L124.264 9.82748H126.536V24.9727H123.55ZM143.301 13.1811C144.556 14.2629 145.183 15.6692 145.183 17.4001C145.183 19.1309 144.556 20.5373 143.301 21.6191C142.046 22.7009 140.366 23.3427 138.26 23.5447V25.2972H135.339V23.5447C133.218 23.3283 131.538 22.6865 130.298 21.6191C129.057 20.5373 128.437 19.1309 128.437 17.4001C128.437 15.6692 129.057 14.2701 130.298 13.2027C131.538 12.1209 133.218 11.4718 135.339 11.2555V9.50294H138.26V11.2555C140.366 11.4574 142.046 12.0993 143.301 13.1811ZM138.26 20.8186C140.885 20.5156 142.197 19.3762 142.197 17.4001C142.197 15.4096 140.885 14.2629 138.26 13.96V20.8186ZM131.401 17.4001C131.401 19.3762 132.714 20.5084 135.339 20.7969V13.9816C132.714 14.2701 131.401 15.4096 131.401 17.4001ZM152.72 9.82748C154.177 9.82748 155.403 10.3179 156.398 11.2987C157.393 12.2796 157.891 13.484 157.891 14.9119C157.891 16.3399 157.393 17.5443 156.398 18.5251C155.403 19.506 154.177 19.9964 152.72 19.9964H150.058V24.9727H147.073V9.82748H152.72ZM152.72 17.2053C153.354 17.2053 153.881 16.989 154.299 16.5563C154.717 16.1091 154.927 15.561 154.927 14.9119C154.927 14.2484 154.717 13.7003 154.299 13.2676C153.881 12.8349 153.354 12.6185 152.72 12.6185H150.058V17.2053H152.72ZM172.472 23.0038C170.944 24.5183 169.083 25.2756 166.89 25.2756C164.698 25.2756 162.837 24.5183 161.308 23.0038C159.794 21.4748 159.037 19.6069 159.037 17.4001C159.037 15.1932 159.794 13.3325 161.308 11.818C162.837 10.289 164.698 9.52458 166.89 9.52458C169.083 9.52458 170.944 10.289 172.472 11.818C174.001 13.3325 174.766 15.1932 174.766 17.4001C174.766 19.6069 174.001 21.4748 172.472 23.0038ZM163.407 20.97C164.345 21.8931 165.506 22.3547 166.89 22.3547C168.275 22.3547 169.436 21.8931 170.374 20.97C171.311 20.0324 171.78 18.8425 171.78 17.4001C171.78 15.9577 171.311 14.7677 170.374 13.8301C169.436 12.8926 168.275 12.4238 166.89 12.4238C165.506 12.4238 164.345 12.8926 163.407 13.8301C162.469 14.7677 162.001 15.9577 162.001 17.4001C162.001 18.8425 162.469 20.0324 163.407 20.97ZM186.016 17.1188C187.343 17.8833 188.007 19.0372 188.007 20.5806C188.007 21.8643 187.553 22.9172 186.644 23.7394C185.735 24.5616 184.617 24.9727 183.29 24.9727H176.864V9.82748H182.836C184.134 9.82748 185.223 10.2314 186.103 11.0391C186.997 11.8324 187.444 12.8493 187.444 14.0898C187.444 15.3447 186.968 16.3543 186.016 17.1188ZM182.836 12.6185H179.85V15.9505H182.836C183.298 15.9505 183.68 15.7918 183.983 15.4745C184.3 15.1571 184.459 14.7605 184.459 14.2845C184.459 13.8085 184.307 13.4118 184.004 13.0945C183.701 12.7772 183.312 12.6185 182.836 12.6185ZM183.29 22.1816C183.795 22.1816 184.213 22.0157 184.545 21.684C184.877 21.3378 185.043 20.9051 185.043 20.3858C185.043 19.881 184.877 19.4627 184.545 19.1309C184.213 18.7848 183.795 18.6117 183.29 18.6117H179.85V22.1816H183.29ZM199.701 24.9727L198.792 22.2465H192.755L191.847 24.9727H188.623L193.924 9.82748H197.623L202.946 24.9727H199.701ZM193.707 19.4555H197.861L195.784 13.2676L193.707 19.4555ZM215.274 9.82748V24.9727H212.288V19.7151H210.579L207.095 24.9727H203.742L207.441 19.3906C206.475 19.0444 205.689 18.453 205.083 17.6164C204.477 16.7798 204.174 15.8567 204.174 14.847C204.174 13.4623 204.665 12.2796 205.646 11.2987C206.626 10.3179 207.816 9.82748 209.216 9.82748H215.274ZM209.216 17.0972H212.288V12.6185H209.216C208.653 12.6185 208.17 12.8349 207.766 13.2676C207.362 13.7003 207.16 14.2268 207.16 14.847C207.16 15.4673 207.362 16.0009 207.766 16.4481C208.17 16.8808 208.653 17.0972 209.216 17.0972ZM111.49 56.1167H113.113V61.8719H110.127V58.9727H101.754V61.8719H98.7679V56.1167H100.239C101.076 54.9484 101.494 53.2391 101.494 50.989V43.8275H111.49V56.1167ZM103.441 56.1167H108.504V46.6185H104.48V51.0323C104.48 53.2247 104.134 54.9195 103.441 56.1167ZM127.616 57.0038C126.087 58.5183 124.226 59.2756 122.034 59.2756C119.841 59.2756 117.981 58.5183 116.452 57.0038C114.937 55.4748 114.18 53.6069 114.18 51.4001C114.18 49.1932 114.937 47.3325 116.452 45.818C117.981 44.289 119.841 43.5246 122.034 43.5246C124.226 43.5246 126.087 44.289 127.616 45.818C129.145 47.3325 129.909 49.1932 129.909 51.4001C129.909 53.6069 129.145 55.4748 127.616 57.0038ZM118.55 54.97C119.488 55.8931 120.649 56.3547 122.034 56.3547C123.419 56.3547 124.58 55.8931 125.517 54.97C126.455 54.0324 126.924 52.8425 126.924 51.4001C126.924 49.9577 126.455 48.7677 125.517 47.8301C124.58 46.8926 123.419 46.4238 122.034 46.4238C120.649 46.4238 119.488 46.8926 118.55 47.8301C117.613 48.7677 117.144 49.9577 117.144 51.4001C117.144 52.8425 117.613 54.0324 118.55 54.97ZM129.973 58.9727V56.2033C130.867 56.3331 131.538 56.1528 131.985 55.6624C132.432 55.1719 132.656 54.2127 132.656 52.7848V43.8275H142.955V58.9727H139.991V46.6834H135.62V52.6982C135.62 54.0108 135.462 55.1142 135.144 56.0085C134.827 56.9028 134.387 57.5663 133.824 57.999C133.276 58.4318 132.685 58.7202 132.05 58.8645C131.43 59.0087 130.738 59.0448 129.973 58.9727ZM154.525 58.9727V49.7341L148.035 58.9727H145.763V43.8275H148.748V53.0877L155.239 43.8275H157.511V58.9727H154.525ZM168.932 43.8275H171.896V58.9727H168.932V52.6982H163.306V58.9727H160.321V43.8275H163.306V49.8423H168.932V43.8275ZM184.445 58.9727L183.537 56.2465H177.5L176.592 58.9727H173.368L178.669 43.8275H182.368L187.691 58.9727H184.445ZM178.452 53.4555H182.606L180.529 47.2676L178.452 53.4555ZM111.165 77.8275V92.9727H108.18V80.6834H102.835V92.9727H99.8497V77.8275H111.165ZM119.632 77.8275C121.089 77.8275 122.315 78.3179 123.31 79.2987C124.305 80.2796 124.803 81.484 124.803 82.9119C124.803 84.3399 124.305 85.5443 123.31 86.5251C122.315 87.506 121.089 87.9964 119.632 87.9964H116.971V92.9727H113.985V77.8275H119.632ZM119.632 85.2053C120.267 85.2053 120.793 84.989 121.211 84.5563C121.63 84.1091 121.839 83.561 121.839 82.9119C121.839 82.2484 121.63 81.7003 121.211 81.2676C120.793 80.8349 120.267 80.6185 119.632 80.6185H116.971V85.2053H119.632ZM135.509 92.9727V83.7341L129.019 92.9727H126.747V77.8275H129.733V87.0877L136.223 77.8275H138.495V92.9727H135.509ZM153.139 92.9727H149.699L144.29 85.8761V92.9727H141.305V77.8275H144.29V84.513L149.483 77.8275H152.923L147.319 85.1837L153.139 92.9727ZM164.732 92.9727L163.824 90.2465H157.787L156.878 92.9727H153.655L158.955 77.8275H162.655L167.978 92.9727H164.732ZM158.739 87.4555H162.893L160.816 81.2676L158.739 87.4555ZM184.269 77.8275V92.9727H181.305V83.1499L177.042 90.1816H176.696L172.434 83.1716V92.9727H169.448V77.8275H172.52L176.869 84.989L181.197 77.8275H184.269ZM192.738 82.8038C194.195 82.8038 195.421 83.2942 196.416 84.275C197.411 85.2558 197.909 86.4602 197.909 87.8882C197.909 89.3162 197.411 90.5206 196.416 91.5014C195.421 92.4822 194.195 92.9727 192.738 92.9727H187.091V77.8275H190.077V82.8038H192.738ZM192.738 90.1816C193.372 90.1816 193.899 89.9653 194.317 89.5325C194.736 89.0998 194.945 88.5517 194.945 87.8882C194.945 87.2391 194.736 86.6982 194.317 86.2655C193.899 85.8184 193.372 85.5948 192.738 85.5948H190.077V90.1816H192.738ZM210.034 77.8275V92.9727H207.048V87.7151H205.339L201.855 92.9727H198.502L202.201 87.3906C201.235 87.0444 200.449 86.453 199.843 85.6164C199.237 84.7798 198.934 83.8567 198.934 82.847C198.934 81.4623 199.425 80.2796 200.406 79.2987C201.387 78.3179 202.577 77.8275 203.976 77.8275H210.034ZM203.976 85.0972H207.048V80.6185H203.976C203.413 80.6185 202.93 80.8349 202.526 81.2676C202.122 81.7003 201.92 82.2268 201.92 82.847C201.92 83.4673 202.122 84.0009 202.526 84.4481C202.93 84.8808 203.413 85.0972 203.976 85.0972Z" fill="white"/>
</svg>
