<svg width="56" height="56" viewBox="0 0 56 56" fill="none" xmlns="http://www.w3.org/2000/svg">
<path d="M41.7794 39.2201C32.1544 41.0739 22.8864 41.1194 14.2321 39.3624C13.5998 39.2422 12.9849 39.6436 12.8566 40.2736C12.7283 40.9047 13.1366 41.5207 13.7678 41.6502C18.1358 42.5369 22.6484 42.9802 27.2789 42.9802C32.1428 42.9802 37.1361 42.4902 42.2204 41.5126C42.8528 41.3912 43.2669 40.7787 43.1456 40.1452C43.0243 39.5129 42.4199 39.1069 41.7794 39.2201Z" fill="url(#paint0_linear_1_7648)"/>
<path d="M18.6166 21.2932C18.6925 21.3084 18.7683 21.3154 18.843 21.3154C19.389 21.3154 19.8766 20.9304 19.9863 20.3739C20.5008 17.7582 22.4958 15.8379 25.9153 14.6654C26.4216 14.5394 26.7938 14.0797 26.7938 13.5326C26.7938 12.7602 25.9771 12.1781 25.248 12.4277C19.8696 14.2431 18.1745 17.5051 17.6985 19.9224C17.5725 20.5547 17.9843 21.1696 18.6166 21.2932Z" fill="url(#paint1_linear_1_7648)"/>
<path d="M43.167 22.1669C43.167 21.4949 43.1285 20.8346 43.0539 20.2034C42.1159 12.2561 35.5744 9.05005 31.7582 7.84722C31.547 7.78072 31.3312 7.72705 31.1142 7.67222C31.3534 7.19972 31.5004 6.67355 31.5004 6.10889C31.5004 4.17922 29.93 2.60889 28.0004 2.60889C26.0707 2.60889 24.5004 4.17922 24.5004 6.10889C24.5004 6.67355 24.6474 7.19972 24.8854 7.67222C24.6684 7.72705 24.4502 7.78189 24.2379 7.84839C23.5145 8.07939 22.8705 8.31739 22.272 8.57289C18.3649 10.2296 15.6174 12.7227 14.1065 15.9859C13.2619 17.8246 12.8337 19.9047 12.8337 22.1669C12.8337 33.8767 7.54986 38.0779 7.50319 38.1141C7.20802 38.3345 7.03536 38.6799 7.03536 39.0486V44.6007C7.02602 45.1071 7.34336 45.562 7.82286 45.7277C12.479 47.326 17.344 48.3177 22.2884 48.7272C22.8227 51.3942 25.1887 53.4231 28.0004 53.4231C30.8412 53.4231 33.2119 51.3662 33.7229 48.6642C38.386 48.2384 43.2184 47.347 48.1149 45.9727C48.6189 45.8316 48.9665 45.3719 48.9665 44.8492V39.0486C48.9665 38.6857 48.7927 38.3404 48.5045 38.1187C48.4509 38.0779 43.167 33.8767 43.167 22.1669ZM28.0004 4.94222C28.6432 4.94222 29.167 5.46489 29.167 6.10889C29.167 6.75289 28.6432 7.27555 28.0004 7.27555C27.3575 7.27555 26.8337 6.75289 26.8337 6.10889C26.8337 5.46489 27.3575 4.94222 28.0004 4.94222ZM28.0004 51.0886C26.542 51.0886 25.2855 50.1774 24.7629 48.8987C25.6589 48.9372 26.563 48.9629 27.4847 48.9629C28.7179 48.9629 29.9802 48.9162 31.253 48.8485C30.7432 50.1552 29.4797 51.0886 28.0004 51.0886ZM46.632 43.9591C41.8382 45.2517 37.1132 46.0859 32.5807 46.4371C29.398 46.6727 26.3157 46.6949 23.4119 46.4942C18.6157 46.1757 13.8965 45.2645 9.36869 43.784V39.5794C10.8317 38.2004 15.167 33.1872 15.167 22.1669C15.167 20.2442 15.524 18.4919 16.2264 16.9636C17.4852 14.2452 19.8244 12.1452 23.1855 10.7207C23.7199 10.4921 24.2962 10.2797 24.9449 10.0709C26.8722 9.46305 29.1262 9.46189 31.0559 10.0721C35.0622 11.3356 39.9925 14.1659 40.7369 20.4776C40.801 21.0189 40.8337 21.5871 40.8337 22.1669C40.8337 33.1872 45.169 38.2004 46.632 39.5794V43.9591Z" fill="url(#paint2_linear_1_7648)"/>
<defs>
<linearGradient id="paint0_linear_1_7648" x1="27.9999" y1="39.2012" x2="27.9999" y2="42.9802" gradientUnits="userSpaceOnUse">
<stop stop-color="#5CC3FD"/>
<stop offset="1" stop-color="#3F69BB"/>
</linearGradient>
<linearGradient id="paint1_linear_1_7648" x1="22.2348" y1="12.3691" x2="22.2348" y2="21.3154" gradientUnits="userSpaceOnUse">
<stop stop-color="#5CC3FD"/>
<stop offset="1" stop-color="#3F69BB"/>
</linearGradient>
<linearGradient id="paint2_linear_1_7648" x1="28.0008" y1="2.60889" x2="28.0008" y2="53.4231" gradientUnits="userSpaceOnUse">
<stop stop-color="#5CC3FD"/>
<stop offset="1" stop-color="#3F69BB"/>
</linearGradient>
</defs>
</svg>
