<svg width="90" height="90" viewBox="0 0 90 90" fill="none" xmlns="http://www.w3.org/2000/svg">
<g clip-path="url(#clip0_1_7567)">
<path d="M88.8185 47.7941C90.3775 46.2352 90.3775 43.7408 88.8185 42.1819L85.8685 39.2318C84.7172 38.0806 84.3815 36.3778 85.0051 34.8907L86.612 31.0533C87.4514 29.0386 86.5161 26.7122 84.5014 25.8488L80.3761 24.1219C78.9131 23.4983 77.9538 22.0593 77.9538 20.4524V15.9913C77.9538 13.8088 76.1789 12.01 73.9724 12.01H69.8232C68.2163 12.01 66.7532 11.0266 66.1536 9.53964L64.5947 5.7022C63.7792 3.66356 61.4528 2.7042 59.4141 3.51965L55.2649 5.19853C53.7779 5.79813 52.099 5.46236 50.9478 4.33511L47.7819 1.16922C46.2229 -0.38974 43.7046 -0.38974 42.1696 1.16922L39.2436 4.11925C38.0923 5.27049 36.3895 5.60626 34.9025 4.98268L31.065 3.37575C29.0504 2.53631 26.7239 3.47169 25.8605 5.48634L24.1336 9.61159C23.5101 11.0746 22.071 12.034 20.4641 12.034H16.0031C13.8205 12.034 12.0217 13.8088 12.0217 16.0153V20.1646C12.0217 21.7715 11.0384 23.2345 9.55136 23.8341L5.71392 25.3931C3.67528 26.2085 2.71592 28.535 3.53137 30.5736L5.21025 34.7229C5.80985 36.2099 5.47408 37.8887 4.34683 39.04L1.18094 42.2059C-0.378021 43.7648 -0.378021 46.2592 1.18094 47.8181L4.13097 50.7442C5.28221 51.8954 5.61798 53.5983 4.9944 55.0853L3.38747 58.9227C2.54803 60.9374 3.4834 63.2638 5.49806 64.1273L9.62331 65.8541C11.0863 66.4777 12.0457 67.9167 12.0457 69.5237V73.9847C12.0457 76.1672 13.8205 77.966 16.027 77.966H20.1763C21.7832 77.966 23.2462 78.9494 23.8458 80.4364L25.4048 84.2978C26.2202 86.3364 28.5467 87.2958 30.5853 86.4803L34.7346 84.8015C36.2216 84.2019 37.9005 84.5376 39.0517 85.6649L42.2176 88.8308C43.7765 90.3897 46.2709 90.3897 47.8298 88.8308L50.7799 85.8807C51.9311 84.7295 53.634 84.3937 55.121 85.0173L58.9584 86.6242C60.9731 87.4637 63.2995 86.5283 64.1629 84.5137L65.8898 80.3884C66.5134 78.9254 67.9524 77.966 69.5594 77.966H74.0204C76.2029 77.966 78.0017 76.1912 78.0017 73.9847V69.8354C78.0017 68.2285 78.9851 66.7655 80.4721 66.1659L84.3095 64.6069C86.3482 63.7915 87.3075 61.465 86.4921 59.4264L84.8132 55.2771C84.2136 53.7901 84.5494 52.1113 85.6766 50.96L88.8185 47.7941ZM44.9997 77.6063C26.9877 77.6063 12.3815 63 12.3815 44.988C12.3815 26.976 26.9877 12.3698 44.9997 12.3698C63.0117 12.3698 77.618 26.976 77.618 44.988C77.618 63 63.0117 77.6063 44.9997 77.6063Z" fill="url(#paint0_linear_1_7567)"/>
<path d="M45 21.6758C32.1205 21.6758 21.6875 32.1088 21.6875 44.9882C21.6875 57.8677 32.1205 68.3007 45 68.3007C57.8794 68.3007 68.3124 57.8677 68.3124 44.9882C68.3124 32.1088 57.8794 21.6758 45 21.6758ZM41.5463 61.4173L26.3404 46.2114L32.936 39.6158L41.5463 48.2261L56.3444 33.4279L62.94 40.0236L41.5463 61.4173Z" fill="url(#paint1_linear_1_7567)"/>
</g>
<defs>
<linearGradient id="paint0_linear_1_7567" x1="44.9997" y1="0" x2="44.9997" y2="90" gradientUnits="userSpaceOnUse">
<stop stop-color="#5CC3FD"/>
<stop offset="1" stop-color="#364CA6"/>
</linearGradient>
<linearGradient id="paint1_linear_1_7567" x1="45" y1="21.6758" x2="45" y2="68.3007" gradientUnits="userSpaceOnUse">
<stop stop-color="#5CC3FD"/>
<stop offset="1" stop-color="#364CA6"/>
</linearGradient>
<clipPath id="clip0_1_7567">
<rect width="90" height="90" fill="white"/>
</clipPath>
</defs>
</svg>
