<svg width="51" height="51" viewBox="0 0 51 51" fill="none" xmlns="http://www.w3.org/2000/svg">
<path d="M46.3427 20.4961C45.6884 20.4961 45.188 21.035 45.188 21.6508V42.4357C45.188 43.7444 44.1488 44.7836 42.8401 44.7836H7.65972C6.35104 44.7836 5.31179 43.7444 5.31179 42.4357V8.52552C5.31179 7.21684 6.35104 6.1776 7.65972 6.1776H30.2922C30.9465 6.1776 31.4469 5.63873 31.4469 5.02288C31.4469 4.36854 30.908 3.86816 30.2922 3.86816H7.42877C4.96538 3.86816 2.96387 5.86967 2.96387 8.33307V42.7436C2.96387 45.207 4.96538 47.2085 7.42877 47.2085H43.071C45.5344 47.2085 47.5359 45.207 47.5359 42.7436V21.6508C47.5359 21.035 46.9971 20.4961 46.3427 20.4961Z" fill="url(#paint0_linear_1_7528)"/>
<path d="M46.5731 8.14094L44.4562 6.02396C42.9935 4.56132 40.6841 4.40735 39.3754 5.75452L17.0894 28.0406L24.5565 35.5077L46.8426 13.2217C48.1898 11.913 48.0743 9.60358 46.5731 8.14094ZM40.9535 15.8006L24.4026 32.3515L20.2456 28.233L36.8735 11.6051L40.9535 15.8006ZM45.1875 11.5666L42.7241 14.03L38.6056 9.87301L41.0305 7.44811C41.5309 6.94773 42.4162 6.98622 42.955 7.56358L45.072 9.68056C45.6494 10.1809 45.6879 11.0662 45.1875 11.5666ZM17.0894 28.1175L14.7799 36.5085C14.6645 36.8934 14.7799 37.2783 15.0494 37.5477C15.3188 37.8172 15.7037 37.9326 16.0886 37.8172L24.4796 35.5077L22.7475 33.7757L17.3203 35.2768L18.8214 29.8111L17.0894 28.1175Z" fill="url(#paint1_linear_1_7528)"/>
<defs>
<linearGradient id="paint0_linear_1_7528" x1="25.2499" y1="3.86816" x2="25.2499" y2="47.2085" gradientUnits="userSpaceOnUse">
<stop stop-color="#5CC3FD"/>
<stop offset="1" stop-color="#3B5DB3"/>
</linearGradient>
<linearGradient id="paint1_linear_1_7528" x1="31.2581" y1="4.82959" x2="31.2581" y2="37.8618" gradientUnits="userSpaceOnUse">
<stop stop-color="#5CC3FD"/>
<stop offset="1" stop-color="#3B5DB3"/>
</linearGradient>
</defs>
</svg>
