<svg width="59" height="59" viewBox="0 0 59 59" fill="none" xmlns="http://www.w3.org/2000/svg">
<path d="M36.875 29.5C36.875 33.5732 33.5732 36.875 29.5 36.875C25.4268 36.875 22.125 33.5732 22.125 29.5C22.125 25.4268 25.4268 22.125 29.5 22.125C33.5732 22.125 36.875 25.4268 36.875 29.5Z" stroke="url(#paint0_linear_1_7536)" stroke-width="4.91667" stroke-linecap="round" stroke-linejoin="round"/>
<path d="M31.7238 7.52262C31.2179 7.375 30.6453 7.375 29.5 7.375C28.3547 7.375 27.7821 7.375 27.2762 7.52262C26.5357 7.73869 25.8816 8.18153 25.4059 8.78881C25.0809 9.2037 24.8683 9.73539 24.443 10.7988C23.8316 12.3274 22.1347 13.1145 20.5727 12.594L19.1696 12.1265C18.1742 11.7947 17.6765 11.6288 17.1886 11.6004C16.4718 11.5586 15.7584 11.727 15.136 12.0849C14.7123 12.3286 14.3413 12.6995 13.5994 13.4414C12.8109 14.2299 12.4166 14.6242 12.1662 15.0742C11.7982 15.7354 11.6425 16.4938 11.7203 17.2465C11.7733 17.7588 11.9803 18.2765 12.3945 19.3118C13.0431 20.9333 12.4191 22.7857 10.9217 23.6844L10.2395 24.0938C9.19493 24.7205 8.67266 25.0339 8.29329 25.4654C7.95758 25.8472 7.70444 26.2943 7.54976 26.7786C7.375 27.3258 7.375 27.9409 7.375 29.1713C7.375 30.6281 7.375 31.3563 7.60761 31.98C7.81315 32.5309 8.14746 33.0245 8.58263 33.4201C9.07513 33.8675 9.74471 34.1354 11.0838 34.6711C12.4523 35.2183 13.1569 36.7376 12.6908 38.1359L12.1619 39.7227C11.7955 40.8216 11.6124 41.3713 11.5957 41.9111C11.5757 42.5604 11.7275 43.2032 12.0357 43.7748C12.292 44.2505 12.7017 44.66 13.5208 45.4792C14.34 46.2983 14.7496 46.7078 15.2251 46.9642C15.7968 47.2725 16.4397 47.4244 17.0889 47.4043C17.6288 47.3876 18.1783 47.2044 19.2774 46.8381L20.5729 46.4062C22.1347 45.8858 23.8316 46.6727 24.443 48.2013C24.8683 49.2645 25.0809 49.7962 25.4059 50.2112C25.8816 50.8184 26.5357 51.2614 27.2762 51.4775C27.7821 51.625 28.3547 51.625 29.5 51.625C30.6453 51.625 31.2179 51.625 31.7238 51.4775C32.4643 51.2614 33.1184 50.8184 33.5941 50.2112C33.9191 49.7962 34.1317 49.2645 34.557 48.2013C35.1684 46.6727 36.8654 45.8858 38.4269 46.4067L39.7215 46.8384C40.8206 47.2047 41.3703 47.3878 41.9102 47.4045C42.5594 47.4244 43.2023 47.2728 43.7738 46.9645C44.2493 46.7081 44.6591 46.2985 45.4782 45.4794C46.2973 44.6603 46.7069 44.2505 46.9633 43.7751C47.2715 43.2035 47.4232 42.5604 47.4033 41.9114C47.3866 41.3715 47.2034 40.8219 46.8372 39.7227L46.3086 38.1371C45.8423 36.7383 46.5471 35.2186 47.9161 34.6711C49.2552 34.1354 49.9248 33.8675 50.4175 33.4201C50.8526 33.0245 51.1869 32.5309 51.3924 31.98C51.625 31.3563 51.625 30.6281 51.625 29.1713C51.625 27.9409 51.625 27.3258 51.4502 26.7786C51.2956 26.2943 51.0424 25.8472 50.7068 25.4654C50.3272 25.0339 49.8051 24.7205 48.7606 24.0938L48.0774 23.684C46.58 22.7855 45.9558 20.9331 46.6046 19.3116C47.0186 18.2763 47.2258 17.7586 47.2787 17.2463C47.3563 16.4936 47.2007 15.7352 46.8327 15.074C46.5822 14.624 46.1881 14.2297 45.3995 13.4412C44.6576 12.6994 44.2866 12.3284 43.8631 12.0847C43.2406 11.7268 42.5272 11.5584 41.8104 11.6002C41.3224 11.6286 40.8248 11.7945 39.8294 12.1263L38.4272 12.5937C36.8654 13.1143 35.1684 12.3273 34.557 10.7988C34.1317 9.73539 33.9191 9.2037 33.5941 8.78881C33.1184 8.18153 32.4643 7.73869 31.7238 7.52262Z" stroke="url(#paint1_linear_1_7536)" stroke-width="4.91667" stroke-linecap="round" stroke-linejoin="round"/>
<defs>
<linearGradient id="paint0_linear_1_7536" x1="29.5" y1="22.125" x2="29.5" y2="36.875" gradientUnits="userSpaceOnUse">
<stop stop-color="#5CC3FD"/>
<stop offset="1" stop-color="#364CA6"/>
</linearGradient>
<linearGradient id="paint1_linear_1_7536" x1="29.5" y1="7.375" x2="29.5" y2="51.625" gradientUnits="userSpaceOnUse">
<stop stop-color="#5CC3FD"/>
<stop offset="1" stop-color="#364CA6"/>
</linearGradient>
</defs>
</svg>
