<svg width="54" height="54" viewBox="0 0 54 54" fill="none" xmlns="http://www.w3.org/2000/svg">
<path d="M28.8799 36.6554V39.0316C28.8799 39.4155 28.7272 39.7833 28.4559 40.0546C28.1844 40.3261 27.8163 40.4786 27.4325 40.4786C27.0487 40.4786 26.6806 40.3261 26.4093 40.0546C26.1378 39.7833 25.9855 39.4155 25.9855 39.0316V36.5904C25.0275 36.4325 24.1113 36.0832 23.2911 35.5638C22.4711 35.0443 21.7639 34.3652 21.2117 33.5666C20.9903 33.3247 20.8672 33.0087 20.8662 32.6808C20.866 32.4938 20.9037 32.3086 20.9772 32.1365C21.0507 31.9646 21.1584 31.809 21.2937 31.6799C21.4291 31.5507 21.5891 31.45 21.7644 31.3846C21.9397 31.3189 22.1264 31.2898 22.3134 31.2986C22.4989 31.2976 22.6822 31.3377 22.8503 31.4161C23.0185 31.4945 23.1671 31.6092 23.2855 31.7522C23.9763 32.6547 24.9141 33.3372 25.9855 33.7176V28.2316C23.1127 27.0868 21.6654 25.4234 21.6654 23.2418C21.7087 22.0739 22.1677 20.9599 22.9598 20.1005C23.7518 19.2411 24.8249 18.693 25.9855 18.5548V16.157C25.9855 15.7732 26.1378 15.4048 26.4093 15.1334C26.6806 14.862 27.0487 14.71 27.4325 14.71C27.8163 14.71 28.1844 14.862 28.4559 15.1334C28.7272 15.4048 28.8799 15.7732 28.8799 16.157V18.5332C29.6871 18.6576 30.4608 18.9433 31.1548 19.3738C31.8488 19.8043 32.4491 20.3707 32.9191 21.0386C33.1096 21.2885 33.2221 21.5888 33.2429 21.9024C33.2487 22.0875 33.2174 22.2722 33.1504 22.445C33.0835 22.6178 32.9826 22.7751 32.8537 22.9081C32.7247 23.041 32.5703 23.147 32.3998 23.2192C32.2292 23.2913 32.0458 23.3284 31.8605 23.3282C31.6674 23.3259 31.4769 23.2822 31.3019 23.2001C31.1267 23.1183 30.9712 22.9999 30.8455 22.8532C30.3303 22.2098 29.6515 21.7169 28.8799 21.4273V26.2872L29.4199 26.5034C32.1631 27.5618 33.8695 29.1168 33.8695 31.6008C33.8323 32.9184 33.2965 34.1732 32.3705 35.1112C31.4445 36.0493 30.1969 36.6012 28.8799 36.6554ZM25.9855 25.0348V21.5354C25.6369 21.6618 25.3366 21.8946 25.1273 22.2009C24.9182 22.507 24.8105 22.8712 24.8191 23.2418C24.8368 23.609 24.9547 23.9644 25.1606 24.2691C25.3662 24.5739 25.6516 24.8163 25.9855 24.97V25.0348ZM30.7375 31.6656C30.7375 30.6072 30.0031 29.9808 28.8799 29.5056V33.8256C29.4102 33.7511 29.8938 33.4822 30.237 33.0709C30.5803 32.6599 30.7587 32.1358 30.7375 31.6008V31.6656Z" fill="url(#paint0_linear_1_7531)"/>
<path d="M28.2522 8.5752H14.0394C11.7479 8.5752 9.55046 9.48561 7.93013 11.1059C6.30983 12.7262 5.39941 14.9237 5.39941 17.2152V38.8153C5.39941 41.1066 6.30983 43.3042 7.93013 44.9244C9.55046 46.5448 11.7479 47.4553 14.0394 47.4553H39.9594C42.251 47.4553 44.4485 46.5448 46.0688 44.9244C47.6892 43.3042 48.5994 41.1066 48.5994 38.8153V25.7038" stroke="url(#paint1_linear_1_7531)" stroke-width="3.24" stroke-linecap="round" stroke-linejoin="round"/>
<path d="M36.374 18.5327L48.5996 6.30713" stroke="url(#paint2_linear_1_7531)" stroke-width="3.24" stroke-linecap="round" stroke-linejoin="round"/>
<path d="M38.8379 6.30713H48.6011V16.0919" stroke="url(#paint3_linear_1_7531)" stroke-width="3.24" stroke-linecap="round" stroke-linejoin="round"/>
<defs>
<linearGradient id="paint0_linear_1_7531" x1="27.3679" y1="14.71" x2="27.3679" y2="40.4786" gradientUnits="userSpaceOnUse">
<stop stop-color="#5CC3FD"/>
<stop offset="1" stop-color="#364CA6"/>
</linearGradient>
<linearGradient id="paint1_linear_1_7531" x1="26.9994" y1="8.5752" x2="26.9994" y2="47.4553" gradientUnits="userSpaceOnUse">
<stop stop-color="#5CC3FD"/>
<stop offset="1" stop-color="#364CA6"/>
</linearGradient>
<linearGradient id="paint2_linear_1_7531" x1="42.4868" y1="6.30713" x2="42.4868" y2="18.5327" gradientUnits="userSpaceOnUse">
<stop stop-color="#5CC3FD"/>
<stop offset="1" stop-color="#364CA6"/>
</linearGradient>
<linearGradient id="paint3_linear_1_7531" x1="43.7195" y1="6.30713" x2="43.7195" y2="16.0919" gradientUnits="userSpaceOnUse">
<stop stop-color="#5CC3FD"/>
<stop offset="1" stop-color="#364CA6"/>
</linearGradient>
</defs>
</svg>
