<svg width="55" height="55" viewBox="0 0 55 55" fill="none" xmlns="http://www.w3.org/2000/svg">
<path fill-rule="evenodd" clip-rule="evenodd" d="M36.0938 13.7499V24.2497L46.4062 35.4215V44.6874L34.0313 39.5312H32.4592C32.653 40.6108 32.8036 42.1256 32.4088 43.4573C32.0052 44.8178 30.9102 46.3409 30.1024 47.3657C29.6688 47.9159 29.257 48.397 28.9543 48.74C28.8024 48.9119 28.6765 49.0508 28.5876 49.1477C28.5432 49.1961 28.5079 49.2341 28.4831 49.2609L28.4538 49.2923L28.4453 49.3013L28.4426 49.304L27.1214 50.7012L25.8802 49.235L25.8764 49.2307L25.8686 49.2213L25.8417 49.1892C25.8191 49.1619 25.787 49.1234 25.7469 49.0744C25.6667 48.9763 25.5537 48.8363 25.4176 48.6628C25.1467 48.3172 24.7793 47.8323 24.3969 47.2773C23.6883 46.2492 22.723 44.6966 22.4472 43.3021C22.1936 42.0197 22.4558 40.586 22.738 39.5312H20.9688L8.59375 44.6874V35.4215L18.9062 24.2497V13.7499C18.9062 12.273 19.5716 11.0023 20.3464 10.0137C21.1271 9.01729 22.1257 8.16871 23.0546 7.49622C23.9933 6.81687 24.9214 6.27393 25.6094 5.90264C25.9554 5.71591 26.2453 5.56998 26.4518 5.46937C26.5551 5.41903 26.6379 5.37988 26.6965 5.35252L26.7664 5.32032L26.7871 5.31097L26.7935 5.308L26.7976 5.30614L27.5 4.9917L28.204 5.30692L28.2065 5.308L28.2129 5.31097L28.2336 5.32032L28.3035 5.35252C28.3621 5.37988 28.4449 5.41903 28.5482 5.46937C28.7547 5.56998 29.0446 5.71591 29.3906 5.90264C30.0786 6.27393 31.0067 6.81687 31.9454 7.49622C32.8744 8.16871 33.8729 9.01729 34.6537 10.0137C35.4285 11.0023 36.0938 12.273 36.0938 13.7499ZM26.3303 39.5312C26.2682 39.7127 26.2043 39.9109 26.1429 40.1197C25.8482 41.1234 25.7068 42.0655 25.8193 42.6353C25.9419 43.2542 26.5059 44.2798 27.2273 45.3266L27.2761 45.3972C27.318 45.3449 27.3602 45.2918 27.4026 45.2379C28.2299 44.1881 28.9192 43.1332 29.1131 42.4799C29.2873 41.893 29.2355 40.9518 29.043 39.9641C29.0136 39.8133 28.9823 39.6682 28.9506 39.5312H26.3303ZM36.0938 36.6666V29.3177L42.9688 36.7656V39.5312L36.0938 36.6666ZM32.6562 13.7499V36.0937H22.3438V13.7499C22.3438 13.3282 22.5378 12.7903 23.0521 12.1339C23.5604 11.4853 24.2807 10.8524 25.0704 10.2808C25.8505 9.71599 26.6411 9.25209 27.2422 8.92761C27.3332 8.8785 27.4193 8.83283 27.5 8.79073C27.5807 8.83283 27.6668 8.8785 27.7578 8.92761C28.3589 9.25209 29.1495 9.71599 29.9296 10.2808C30.7193 10.8524 31.4396 11.4853 31.9479 12.1339C32.4621 12.7903 32.6562 13.3282 32.6562 13.7499ZM18.9062 29.3177V36.6666L12.0312 39.5312V36.7656L18.9062 29.3177Z" fill="url(#paint0_linear_1_8524)"/>
<defs>
<linearGradient id="paint0_linear_1_8524" x1="27.5" y1="4.9917" x2="27.5" y2="50.7012" gradientUnits="userSpaceOnUse">
<stop stop-color="#5CC3FD"/>
<stop offset="1" stop-color="#364CA6"/>
</linearGradient>
</defs>
</svg>
