<svg width="96" height="96" viewBox="0 0 96 96" fill="none" xmlns="http://www.w3.org/2000/svg">
<path d="M21 29.844V84H75V29.844L51.798 10.86C50.7262 9.98371 49.3844 9.50496 48 9.50496C46.6156 9.50496 45.2738 9.98371 44.202 10.86L21 29.844ZM55.596 6.21605L79.896 26.1C80.2406 26.3811 80.5184 26.7352 80.7094 27.1368C80.9003 27.5384 80.9996 27.9774 81 28.422V87C81 87.7957 80.6839 88.5588 80.1213 89.1214C79.5587 89.684 78.7957 90 78 90H18C17.2044 90 16.4413 89.684 15.8787 89.1214C15.3161 88.5588 15 87.7957 15 87V28.422C14.9997 27.9779 15.098 27.5392 15.2879 27.1376C15.4778 26.736 15.7545 26.3817 16.098 26.1L40.398 6.21605C42.542 4.46184 45.2268 3.50342 47.997 3.50342C50.7672 3.50342 53.452 4.46184 55.596 6.21605Z" fill="url(#paint0_linear_1_8484)"/>
<path d="M48 42C49.5913 42 51.1174 41.3679 52.2426 40.2426C53.3679 39.1174 54 37.5913 54 36C54 34.4087 53.3679 32.8826 52.2426 31.7574C51.1174 30.6321 49.5913 30 48 30C46.4087 30 44.8826 30.6321 43.7574 31.7574C42.6321 32.8826 42 34.4087 42 36C42 37.5913 42.6321 39.1174 43.7574 40.2426C44.8826 41.3679 46.4087 42 48 42ZM48 48C44.8174 48 41.7652 46.7357 39.5147 44.4853C37.2643 42.2348 36 39.1826 36 36C36 32.8174 37.2643 29.7652 39.5147 27.5147C41.7652 25.2643 44.8174 24 48 24C51.1826 24 54.2348 25.2643 56.4853 27.5147C58.7357 29.7652 60 32.8174 60 36C60 39.1826 58.7357 42.2348 56.4853 44.4853C54.2348 46.7357 51.1826 48 48 48Z" fill="url(#paint1_linear_1_8484)"/>
<defs>
<linearGradient id="paint0_linear_1_8484" x1="48" y1="3.50342" x2="48" y2="90" gradientUnits="userSpaceOnUse">
<stop stop-color="#5CC3FD"/>
<stop offset="1" stop-color="#364CA6"/>
</linearGradient>
<linearGradient id="paint1_linear_1_8484" x1="48" y1="24" x2="48" y2="48" gradientUnits="userSpaceOnUse">
<stop stop-color="#5CC3FD"/>
<stop offset="1" stop-color="#364CA6"/>
</linearGradient>
</defs>
</svg>
