<svg width="77" height="31" viewBox="0 0 77 31" fill="none" xmlns="http://www.w3.org/2000/svg">
<path d="M32.239 0C34.4879 0 36.1105 0.634763 37.1068 1.90429C38.1032 3.14429 38.4021 4.96 38.0036 7.35143L37.6619 9.61C37.3773 11.2338 36.936 12.4886 36.3382 13.3743C35.7404 14.26 34.8864 14.8652 33.7762 15.19C36.082 16.0462 36.9787 18.1424 36.4663 21.4786L35.9966 24.3571C35.6266 26.7781 34.8579 28.4905 33.6908 29.4943C32.5521 30.4981 30.8156 31 28.4813 31H0L5.33758 0H32.239ZM13.5788 7.13L12.7248 12.2671H25.962C26.6452 12.2671 27.1291 12.1343 27.4138 11.8686C27.6985 11.6029 27.912 11.101 28.0543 10.3629L28.2678 9.12286C28.4101 8.41429 28.3532 7.91238 28.097 7.61714C27.8408 7.29238 27.3569 7.13 26.6452 7.13H13.5788ZM27.2857 20.1057C27.3996 19.3676 27.3284 18.851 27.0722 18.5557C26.8445 18.231 26.3748 18.0686 25.6631 18.0686H11.7427L10.7606 23.87H24.8518C25.535 23.87 26.0189 23.7371 26.3036 23.4714C26.5883 23.2057 26.8018 22.7038 26.9441 21.9657L27.2857 20.1057Z" fill="#3FB1F2"/>
<path d="M38.5326 31L43.8275 0H70.0457C75.4829 0 77.7318 2.83429 76.7924 8.50286L75.7676 14.5257C75.3121 17.36 74.4439 19.3381 73.1628 20.46C71.8818 21.5819 69.8749 22.1429 67.1421 22.1429H49.5494L48.0122 31H38.5326ZM50.745 15.1014H64.0249C64.8789 15.1014 65.4767 14.939 65.8183 14.6143C66.1884 14.2895 66.4446 13.6695 66.587 12.7543L67.0994 9.83143C67.2417 8.91619 67.1563 8.28143 66.8432 7.92714C66.5585 7.57286 65.9749 7.39571 65.0924 7.39571H52.026L50.745 15.1014Z" fill="white"/>
</svg>
